G04*
G04 #@! TF.GenerationSoftware,Altium Limited,Altium Designer,22.2.1 (43)*
G04*
G04 Layer_Color=32896*
%FSLAX44Y44*%
%MOMM*%
G71*
G04*
G04 #@! TF.SameCoordinates,1728C203-2672-44AB-99B5-9D0C7A82A750*
G04*
G04*
G04 #@! TF.FilePolarity,Positive*
G04*
G01*
G75*
%ADD10C,0.2500*%
%ADD12C,0.2000*%
%ADD46C,0.4000*%
D10*
X57410Y132260D02*
G03*
X57410Y132260I-1250J0D01*
G01*
X39530Y27995D02*
G03*
X39530Y27995I-1250J0D01*
G01*
X98133Y173263D02*
G03*
X98133Y173263I-1250J0D01*
G01*
D12*
X23160Y144260D02*
X54160D01*
X23160Y163260D02*
X54160D01*
Y144260D02*
Y163260D01*
X23160Y144260D02*
Y163260D01*
X65305Y71700D02*
X67805D01*
X65305Y80700D02*
X67805D01*
X50280Y60995D02*
X69280D01*
X50280Y29995D02*
X69280D01*
Y60995D01*
X50280Y29995D02*
Y60995D01*
X87530Y80700D02*
X90030D01*
X87530Y71700D02*
X90030D01*
X36250Y12720D02*
Y15220D01*
X27250Y12720D02*
Y15220D01*
X65305Y82495D02*
X67805D01*
X65305Y91495D02*
X67805D01*
X48950Y86895D02*
Y89395D01*
X39950Y86895D02*
Y89395D01*
X118165Y47130D02*
Y49630D01*
X109165Y47130D02*
Y49630D01*
X62175Y172860D02*
Y175360D01*
X71175Y172860D02*
Y175360D01*
X97100Y47130D02*
Y49630D01*
X106100Y47130D02*
Y49630D01*
X89480Y12720D02*
Y15220D01*
X98480Y12720D02*
Y15220D01*
X38155Y86895D02*
Y89395D01*
X29155Y86895D02*
Y89395D01*
X71655Y198175D02*
X74155D01*
X71655Y189175D02*
X74155D01*
X65305Y93290D02*
X67805D01*
X65305Y102290D02*
X67805D01*
X19585Y198175D02*
X22085D01*
X19585Y189175D02*
X22085D01*
X84479Y116971D02*
Y129471D01*
X105479Y116971D02*
Y129471D01*
X119633Y165263D02*
X137133D01*
X119633Y181263D02*
X137133D01*
X119923Y197125D02*
X137423D01*
X119870Y180095D02*
X137370D01*
X154995Y104915D02*
Y107415D01*
X145995Y104915D02*
Y107415D01*
X142380Y160710D02*
X144880D01*
X142380Y151710D02*
X144880D01*
X116345Y151740D02*
X118845D01*
X116345Y160740D02*
X118845D01*
X138610Y126825D02*
X142110D01*
X125360Y132075D02*
Y140825D01*
X148110D02*
X155360D01*
X125360D02*
X132610D01*
X155360Y132075D02*
Y140825D01*
X89206Y2966D02*
Y27088D01*
X72084Y2966D02*
Y27088D01*
X75236Y132933D02*
Y157054D01*
X58114Y132933D02*
Y157054D01*
X53646Y2758D02*
Y26879D01*
X36524Y2758D02*
Y26879D01*
D46*
X48160Y152260D02*
G03*
X48160Y152260I-2000J0D01*
G01*
X60280Y37995D02*
G03*
X60280Y37995I-2000J0D01*
G01*
M02*
