G04*
G04 #@! TF.GenerationSoftware,Altium Limited,Altium Designer,22.2.1 (43)*
G04*
G04 Layer_Color=2752767*
%FSLAX44Y44*%
%MOMM*%
G71*
G04*
G04 #@! TF.SameCoordinates,1728C203-2672-44AB-99B5-9D0C7A82A750*
G04*
G04*
G04 #@! TF.FilePolarity,Positive*
G04*
G01*
G75*
%ADD48C,0.0508*%
%ADD49C,0.0677*%
D48*
X11303Y178943D02*
Y183007D01*
X15367D01*
Y178943D01*
X11303D01*
Y153543D02*
Y157607D01*
X15367D01*
Y153543D01*
X11303D01*
Y128143D02*
Y132207D01*
X15367D01*
Y128143D01*
X11303D01*
Y102743D02*
Y106807D01*
X15367D01*
Y102743D01*
X11303D01*
Y77343D02*
Y81407D01*
X15367D01*
Y77343D01*
X11303D01*
Y51943D02*
Y56007D01*
X15367D01*
Y51943D01*
X11303D01*
Y26543D02*
Y30607D01*
X15367D01*
Y26543D01*
X11303D01*
X162408Y178943D02*
Y183007D01*
X166472D01*
Y178943D01*
X162408D01*
Y153543D02*
Y157607D01*
X166472D01*
Y153543D01*
X162408D01*
Y128143D02*
Y132207D01*
X166472D01*
Y128143D01*
X162408D01*
Y102743D02*
Y106807D01*
X166472D01*
Y102743D01*
X162408D01*
Y77343D02*
Y81407D01*
X166472D01*
Y77343D01*
X162408D01*
Y51943D02*
Y56007D01*
X166472D01*
Y51943D01*
X162408D01*
Y26543D02*
Y30607D01*
X166472D01*
Y26543D01*
X162408D01*
X133985Y67183D02*
X131953Y71247D01*
X136017D01*
X133985Y67183D01*
X80126Y150646D02*
X78094Y154710D01*
X82158D01*
X80126Y150646D01*
X59055Y36105D02*
X57023Y40169D01*
X61087D01*
X59055Y36105D01*
X104818Y11257D02*
X102786Y15321D01*
X106850D01*
X104818Y11257D01*
X12700Y8763D02*
X10668Y12827D01*
X14732D01*
X12700Y8763D01*
X134620Y104648D02*
X132588Y108712D01*
X136652D01*
X134620Y104648D01*
X119380D02*
X117348Y108712D01*
X121412D01*
X119380Y104648D01*
X102014Y122299D02*
X99982Y126363D01*
X104046D01*
X102014Y122299D01*
X73025Y121158D02*
X70993Y125222D01*
X75057D01*
X73025Y121158D01*
X33655Y65913D02*
X31623Y69977D01*
X35687D01*
X33655Y65913D01*
X36475Y103503D02*
X34443Y107567D01*
X38507D01*
X36475Y103503D01*
D49*
X70612Y8255D02*
G03*
X70612Y8255I-2032J0D01*
G01*
X57912D02*
G03*
X57912Y8255I-2032J0D01*
G01*
X136652Y201295D02*
G03*
X136652Y201295I-2032J0D01*
G01*
X123952D02*
G03*
X123952Y201295I-2032J0D01*
G01*
X119507Y6985D02*
G03*
X119507Y6985I-2032J0D01*
G01*
X132207D02*
G03*
X132207Y6985I-2032J0D01*
G01*
X144907D02*
G03*
X144907Y6985I-2032J0D01*
G01*
M02*
