G04*
G04 #@! TF.GenerationSoftware,Altium Limited,Altium Designer,22.2.1 (43)*
G04*
G04 Layer_Color=16711935*
%FSLAX44Y44*%
%MOMM*%
G71*
G04*
G04 #@! TF.SameCoordinates,1728C203-2672-44AB-99B5-9D0C7A82A750*
G04*
G04*
G04 #@! TF.FilePolarity,Positive*
G04*
G01*
G75*
%ADD12C,0.2000*%
%ADD14C,0.1000*%
D12*
X63865Y83765D02*
Y92765D01*
X46865D02*
X63865D01*
X46865Y83765D02*
Y92765D01*
Y83765D02*
X63865D01*
X94945Y168415D02*
X104445D01*
Y185915D01*
X94945D02*
X104445D01*
X94945Y168415D02*
Y185915D01*
X138125Y20110D02*
X147625D01*
Y37610D01*
X138125D02*
X147625D01*
X138125Y20110D02*
Y37610D01*
X72445Y153425D02*
Y170425D01*
X63445Y153425D02*
X72445D01*
X63445D02*
Y170425D01*
X72445D01*
X47030Y-3445D02*
X77430D01*
X47030D02*
Y19955D01*
X77430D01*
Y-3445D02*
Y19955D01*
X46745Y102925D02*
X63745D01*
Y93925D02*
Y102925D01*
X46745Y93925D02*
X63745D01*
X46745D02*
Y102925D01*
X64625Y51765D02*
X82125D01*
X64625D02*
Y61265D01*
X82125D01*
Y51765D02*
Y61265D01*
X81860Y29575D02*
X90860D01*
X81860Y12575D02*
Y29575D01*
Y12575D02*
X90860D01*
Y29575D01*
X125425Y20110D02*
X134925D01*
Y37610D01*
X125425D02*
X134925D01*
X125425Y20110D02*
Y37610D01*
X125675Y40910D02*
X134675D01*
Y57910D01*
X125675D02*
X134675D01*
X125675Y40910D02*
Y57910D01*
X137510Y168305D02*
X146510D01*
Y185305D01*
X137510D02*
X146510D01*
X137510Y168305D02*
Y185305D01*
X118235Y41855D02*
Y50855D01*
X101235D02*
X118235D01*
X101235Y41855D02*
Y50855D01*
Y41855D02*
X118235D01*
X103235Y52015D02*
Y61015D01*
X86235D02*
X103235D01*
X86235Y52015D02*
Y61015D01*
Y52015D02*
X103235D01*
X138375Y40910D02*
X147375D01*
Y57910D01*
X138375D02*
X147375D01*
X138375Y40910D02*
Y57910D01*
X113070Y189595D02*
X143470D01*
X113070D02*
Y212995D01*
X143470D01*
Y189595D02*
Y212995D01*
X112725Y37610D02*
X122225D01*
X112725Y20110D02*
Y37610D01*
Y20110D02*
X122225D01*
Y37610D01*
X71485Y194255D02*
Y203255D01*
X54485D02*
X71485D01*
X54485Y194255D02*
Y203255D01*
Y194255D02*
X71485D01*
X46495Y107010D02*
Y116510D01*
Y107010D02*
X63995D01*
Y116510D01*
X46495D02*
X63995D01*
X109800Y167015D02*
Y187515D01*
Y167015D02*
X135300D01*
Y187515D01*
X109800D02*
X135300D01*
D14*
X39850Y148030D02*
G03*
X39850Y148030I-5000J0D01*
G01*
X146095Y126895D02*
G03*
X146095Y126895I-5000J0D01*
G01*
X56850Y139030D02*
Y170030D01*
X25850Y139030D02*
Y170030D01*
X56850D01*
X25850Y139030D02*
X56850D01*
X25385Y12075D02*
Y197475D01*
X1285D02*
X25385D01*
X1285Y12075D02*
X25385D01*
X1285D02*
Y197475D01*
X100095Y135895D02*
X150095D01*
X100095Y95895D02*
X150095D01*
Y135895D01*
X100095Y95895D02*
Y135895D01*
X176490Y12075D02*
Y197475D01*
X152390D02*
X176490D01*
X152390Y12075D02*
X176490D01*
X152390D02*
Y197475D01*
X149225Y-3717D02*
Y17682D01*
X111125D02*
X149225D01*
X111125Y-3717D02*
Y17682D01*
Y-3717D02*
X149225D01*
M02*
