G04*
G04 #@! TF.GenerationSoftware,Altium Limited,Altium Designer,22.2.1 (43)*
G04*
G04 Layer_Physical_Order=2*
G04 Layer_Color=16711680*
%FSLAX44Y44*%
%MOMM*%
G71*
G04*
G04 #@! TF.SameCoordinates,1728C203-2672-44AB-99B5-9D0C7A82A750*
G04*
G04*
G04 #@! TF.FilePolarity,Positive*
G04*
G01*
G75*
%ADD15R,0.5000X0.8000*%
%ADD17R,0.8000X0.5000*%
%ADD20R,0.7500X0.9000*%
%ADD27R,1.1200X1.1200*%
%ADD28C,1.1200*%
%ADD32C,0.2540*%
%ADD33C,1.5500*%
%ADD34R,1.5500X1.5500*%
%ADD35C,1.0500*%
%ADD36R,1.0500X1.0500*%
%ADD37C,1.2700*%
%ADD38O,0.4500X1.6000*%
%ADD39O,1.6000X0.4500*%
%ADD40R,2.6000X1.0000*%
%ADD41R,1.2500X2.0000*%
%ADD42R,0.8000X0.9000*%
%ADD43R,0.9121X1.0578*%
G36*
X117738Y208280D02*
X116922Y207809D01*
X115406Y206293D01*
X114335Y204437D01*
X113780Y202367D01*
Y200223D01*
X114335Y198153D01*
X115406Y196297D01*
X116330Y195373D01*
Y187049D01*
X115159Y185877D01*
X114613D01*
X114237Y185803D01*
X100843D01*
X100027Y186735D01*
Y197406D01*
X99731Y198892D01*
X98889Y200152D01*
X93040Y206002D01*
X91780Y206844D01*
X90293Y207140D01*
X55935D01*
X54448Y206844D01*
X53188Y206002D01*
X46968Y199782D01*
X45795Y200268D01*
Y200442D01*
X45499Y201929D01*
X44657Y203189D01*
X43169Y204677D01*
X41909Y205519D01*
X40422Y205815D01*
X14823D01*
X13336Y205519D01*
X12076Y204677D01*
X10588Y203189D01*
X9746Y201929D01*
X9450Y200442D01*
Y200215D01*
X8295D01*
Y189947D01*
X7017Y189209D01*
X5101Y187293D01*
X3746Y184947D01*
X3045Y182330D01*
Y179620D01*
X3746Y177003D01*
X5101Y174657D01*
X7017Y172741D01*
X9363Y171386D01*
X11980Y170685D01*
X14690D01*
X17307Y171386D01*
X19653Y172741D01*
X21569Y174657D01*
X22756Y176713D01*
X24026Y176388D01*
Y169510D01*
X24398Y167641D01*
X25400Y166141D01*
Y154230D01*
X25696Y152743D01*
X26538Y151483D01*
X29003Y149018D01*
X30263Y148176D01*
X31750Y147880D01*
X59574D01*
Y143936D01*
Y130393D01*
X65859D01*
X66385Y129122D01*
X65911Y128649D01*
X64741Y126621D01*
X64162Y124460D01*
X73025D01*
Y123190D01*
X74295D01*
Y114327D01*
X76456Y114906D01*
X78241Y115936D01*
X79068Y115561D01*
X79439Y115235D01*
Y111311D01*
X79076Y111239D01*
X77816Y110397D01*
X76974Y109136D01*
X76678Y107650D01*
Y104330D01*
X69250D01*
Y109555D01*
X68954Y111042D01*
X68112Y112302D01*
X53294Y127120D01*
Y138010D01*
X52922Y139879D01*
X51863Y141463D01*
X50279Y142522D01*
X48410Y142894D01*
X46541Y142522D01*
X45160Y141599D01*
X43779Y142522D01*
X41910Y142894D01*
X40041Y142522D01*
X38660Y141599D01*
X37279Y142522D01*
X35410Y142894D01*
X33541Y142522D01*
X32160Y141599D01*
X30779Y142522D01*
X30180Y142641D01*
Y132260D01*
X27640D01*
Y142641D01*
X27041Y142522D01*
X25457Y141463D01*
X24398Y139879D01*
X24026Y138010D01*
Y134762D01*
X22756Y134437D01*
X21569Y136493D01*
X19653Y138409D01*
X17307Y139764D01*
X14690Y140465D01*
X11980D01*
X9363Y139764D01*
X7017Y138409D01*
X5101Y136493D01*
X3746Y134147D01*
X3045Y131530D01*
Y128820D01*
X3746Y126203D01*
X5101Y123857D01*
X7017Y121941D01*
X9363Y120586D01*
X11980Y119885D01*
X14690D01*
X17307Y120586D01*
X19653Y121941D01*
X21569Y123857D01*
X22826Y126034D01*
X23384Y126082D01*
X24152Y125879D01*
X24398Y124641D01*
X25025Y123702D01*
Y115634D01*
X25321Y114148D01*
X26163Y112888D01*
X28884Y110167D01*
X28191Y108966D01*
X27677Y107049D01*
X24895Y104267D01*
X23625Y104793D01*
Y106130D01*
X22924Y108747D01*
X21569Y111093D01*
X19653Y113009D01*
X17307Y114364D01*
X14690Y115065D01*
X11980D01*
X9363Y114364D01*
X7017Y113009D01*
X5101Y111093D01*
X3746Y108747D01*
X3045Y106130D01*
Y103420D01*
X3746Y100803D01*
X5101Y98457D01*
X7017Y96541D01*
X9363Y95186D01*
X11980Y94485D01*
X14690D01*
X17307Y95186D01*
X19653Y96541D01*
X20631Y97519D01*
X21901Y96993D01*
Y87157D01*
X20631Y86631D01*
X19653Y87609D01*
X17307Y88964D01*
X14690Y89665D01*
X11980D01*
X9363Y88964D01*
X7017Y87609D01*
X5101Y85693D01*
X3746Y83347D01*
X3045Y80730D01*
Y78020D01*
X3746Y75403D01*
X5101Y73057D01*
X7017Y71141D01*
X9363Y69786D01*
X11980Y69085D01*
X14690D01*
X17307Y69786D01*
X18511Y70481D01*
X19610Y69846D01*
Y63737D01*
X19619Y63696D01*
X18485Y62883D01*
X17307Y63564D01*
X14690Y64265D01*
X11980D01*
X9363Y63564D01*
X7017Y62209D01*
X5101Y60293D01*
X3746Y57947D01*
X3045Y55330D01*
Y52620D01*
X3746Y50003D01*
X5101Y47657D01*
X7017Y45741D01*
X9363Y44386D01*
X11980Y43685D01*
X14690D01*
X17307Y44386D01*
X19653Y45741D01*
X21569Y47657D01*
X22924Y50003D01*
X23625Y52620D01*
Y55330D01*
X23264Y56678D01*
X24402Y57336D01*
X26700Y55038D01*
X26739Y55012D01*
X27929Y53822D01*
X28018Y53376D01*
X28216Y53079D01*
X27796Y51423D01*
X27338Y51117D01*
X22653Y46432D01*
X21811Y45172D01*
X21515Y43685D01*
Y38865D01*
X3045D01*
Y18285D01*
X5822D01*
X6348Y17015D01*
X5586Y16254D01*
X4416Y14226D01*
X3810Y11965D01*
Y9625D01*
X2648Y9055D01*
X2072Y9751D01*
X708Y13044D01*
X0Y16601D01*
Y18415D01*
Y191135D01*
Y192949D01*
X708Y196506D01*
X2096Y199858D01*
X4111Y202874D01*
X6676Y205439D01*
X9692Y207454D01*
X13044Y208842D01*
X16601Y209550D01*
X117398D01*
X117738Y208280D01*
D02*
G37*
G36*
X164307Y208818D02*
X167774Y207382D01*
X170894Y205297D01*
X173547Y202644D01*
X175632Y199524D01*
X177068Y196057D01*
X177800Y192376D01*
Y174768D01*
X176627Y174282D01*
X174730Y176179D01*
Y191265D01*
X154150D01*
Y185803D01*
X142528D01*
X142153Y185877D01*
X142081D01*
X140910Y187049D01*
Y193155D01*
X142760D01*
Y209435D01*
X143982Y209550D01*
X160626D01*
X164307Y208818D01*
D02*
G37*
G36*
X137725Y179246D02*
X138343Y178833D01*
Y162750D01*
X131090D01*
Y162750D01*
X130135Y162780D01*
Y162780D01*
X129832Y162780D01*
X125549D01*
X121049Y167279D01*
X119789Y168122D01*
X118423Y168393D01*
Y178516D01*
X119515Y179246D01*
X121824Y181555D01*
X135416D01*
X137725Y179246D01*
D02*
G37*
G36*
X83745Y163691D02*
X81554Y161499D01*
X81296Y161568D01*
X78955D01*
X76694Y160963D01*
X74961Y159962D01*
X73776Y159594D01*
X73776Y159594D01*
X73776Y159594D01*
X70560D01*
Y161570D01*
X73215D01*
Y171650D01*
X60735D01*
Y176570D01*
X73215D01*
Y177725D01*
X83745D01*
Y163691D01*
D02*
G37*
G36*
X92554Y160763D02*
X93396Y159502D01*
X99405Y153493D01*
X100665Y152651D01*
X102152Y152355D01*
X105055D01*
Y149700D01*
X109968D01*
Y145761D01*
X87440D01*
X86954Y146935D01*
X87239Y147220D01*
X88410Y149247D01*
X89016Y151508D01*
Y153849D01*
X88410Y156110D01*
X87949Y156907D01*
X90377Y159335D01*
X91219Y160595D01*
X91256Y160779D01*
X92550D01*
X92554Y160763D01*
D02*
G37*
G36*
X120055Y157286D02*
Y149700D01*
X130135D01*
Y149700D01*
X131090Y149670D01*
Y149670D01*
X131393Y149670D01*
X133820D01*
Y139140D01*
X117737D01*
Y152022D01*
X117441Y153509D01*
X116599Y154769D01*
X115135Y156233D01*
Y160648D01*
X116693D01*
X120055Y157286D01*
D02*
G37*
G36*
X143955Y102529D02*
Y93625D01*
X147245D01*
Y57387D01*
X147541Y55900D01*
X148383Y54640D01*
X150133Y52890D01*
X151393Y52048D01*
X152880Y51752D01*
X154383D01*
X154851Y50003D01*
X156206Y47657D01*
X158122Y45741D01*
X160468Y44386D01*
X163085Y43685D01*
X165795D01*
X168412Y44386D01*
X170758Y45741D01*
X170942Y45925D01*
X172115Y45439D01*
Y37111D01*
X170942Y36625D01*
X170758Y36809D01*
X168412Y38164D01*
X165795Y38865D01*
X163085D01*
X160468Y38164D01*
X158122Y36809D01*
X156206Y34893D01*
X154851Y32547D01*
X154150Y29930D01*
Y27220D01*
X154851Y24603D01*
X156206Y22257D01*
X156390Y22073D01*
X155904Y20900D01*
X143012D01*
X131954Y31957D01*
X130694Y32799D01*
X129208Y33095D01*
X124897D01*
X124429Y34365D01*
X125064Y35315D01*
X125360Y36802D01*
Y59958D01*
X125064Y61445D01*
X124222Y62705D01*
X118211Y68715D01*
X116951Y69557D01*
X115465Y69853D01*
X112407D01*
X108672Y73588D01*
Y79580D01*
X108377Y81067D01*
X107535Y82327D01*
X103105Y86757D01*
X101845Y87599D01*
X100358Y87895D01*
X94783D01*
X94297Y89068D01*
X100755Y95527D01*
X109557D01*
X111043Y95822D01*
X111263Y95969D01*
X111731Y96062D01*
X112991Y96904D01*
X115020Y98932D01*
X115949Y98396D01*
X118210Y97790D01*
X120550D01*
X122811Y98396D01*
X124839Y99566D01*
X126206Y100934D01*
X127000Y101109D01*
X127794Y100934D01*
X129161Y99566D01*
X130418Y98841D01*
Y77421D01*
X128526Y76329D01*
X126871Y74674D01*
X125701Y72646D01*
X125095Y70385D01*
Y68045D01*
X125701Y65784D01*
X126871Y63756D01*
X128526Y62101D01*
X130554Y60931D01*
X132815Y60325D01*
X135155D01*
X137416Y60931D01*
X139444Y62101D01*
X141099Y63756D01*
X142269Y65784D01*
X142875Y68045D01*
Y70385D01*
X142269Y72646D01*
X141099Y74674D01*
X139444Y76329D01*
X138187Y77054D01*
Y98474D01*
X140079Y99566D01*
X141734Y101221D01*
X142685Y102869D01*
X143955Y102529D01*
D02*
G37*
G36*
X70755Y57895D02*
X70338Y57617D01*
X66723Y54002D01*
X65881Y52742D01*
X65585Y51255D01*
Y45782D01*
X64315Y45366D01*
X62486Y46422D01*
X60225Y47027D01*
X57885D01*
X55624Y46422D01*
X55227Y46193D01*
X53975Y46936D01*
Y59166D01*
X70370D01*
X70755Y57895D01*
D02*
G37*
G36*
X53596Y31024D02*
X55624Y29853D01*
X57885Y29247D01*
X60225D01*
X62486Y29853D01*
X64315Y30909D01*
X65585Y30493D01*
Y24739D01*
X65881Y23253D01*
X66723Y21993D01*
X69664Y19052D01*
X70924Y18210D01*
X72411Y17914D01*
X73544D01*
Y16395D01*
X60440D01*
Y16292D01*
X59340Y15656D01*
X59022Y15840D01*
X56952Y16395D01*
X54808D01*
X53456Y16033D01*
X52186Y16895D01*
Y29419D01*
X37984D01*
Y26510D01*
X30704D01*
X29285Y27929D01*
Y30805D01*
X30405Y31404D01*
X30661Y31233D01*
X32530Y30861D01*
X44030D01*
X45899Y31233D01*
X46838Y31860D01*
X52760D01*
X53596Y31024D01*
D02*
G37*
G36*
X136975Y15948D02*
X136489Y14775D01*
X135085D01*
Y14612D01*
X133815Y13879D01*
X133182Y14244D01*
X131201Y14775D01*
X129149D01*
X127168Y14244D01*
X125392Y13218D01*
X124677Y12504D01*
X123825Y11857D01*
X122973Y12504D01*
X122258Y13218D01*
X120482Y14244D01*
X118501Y14775D01*
X116449D01*
X114978Y14381D01*
X114803Y14392D01*
X113780Y14910D01*
X113519Y15163D01*
X113102Y16720D01*
X111932Y18748D01*
X110277Y20403D01*
X108249Y21573D01*
X105988Y22179D01*
X103648D01*
X101790Y21681D01*
X100520Y22387D01*
Y24618D01*
X101382Y25325D01*
X127598D01*
X136975Y15948D01*
D02*
G37*
G36*
X177800Y18434D02*
Y16029D01*
X177117Y12594D01*
X175776Y9358D01*
X173831Y6446D01*
X171354Y3969D01*
X168442Y2024D01*
X165206Y683D01*
X161771Y0D01*
X150665D01*
Y13130D01*
X169228D01*
X170715Y13426D01*
X171975Y14268D01*
X176627Y18920D01*
X177800Y18434D01*
D02*
G37*
%LPC*%
G36*
X14690Y165865D02*
X11980D01*
X9363Y165164D01*
X7017Y163809D01*
X5101Y161893D01*
X3746Y159547D01*
X3045Y156930D01*
Y154220D01*
X3746Y151603D01*
X5101Y149257D01*
X7017Y147341D01*
X9363Y145986D01*
X11980Y145285D01*
X14690D01*
X17307Y145986D01*
X19653Y147341D01*
X21569Y149257D01*
X22924Y151603D01*
X23625Y154220D01*
Y156930D01*
X22924Y159547D01*
X21569Y161893D01*
X19653Y163809D01*
X17307Y165164D01*
X14690Y165865D01*
D02*
G37*
G36*
X71755Y121920D02*
X64162D01*
X64741Y119759D01*
X65911Y117731D01*
X67566Y116076D01*
X69594Y114906D01*
X71755Y114327D01*
Y121920D01*
D02*
G37*
%LPD*%
D15*
X59055Y76200D02*
D03*
X74055D02*
D03*
X96280D02*
D03*
X81280D02*
D03*
X59055Y86995D02*
D03*
X74055D02*
D03*
X80405Y193675D02*
D03*
X65405D02*
D03*
X59055Y97790D02*
D03*
X74055D02*
D03*
X28335Y193675D02*
D03*
X13335D02*
D03*
X151130Y156210D02*
D03*
X136130D02*
D03*
X110095Y156240D02*
D03*
X125095D02*
D03*
D17*
X31750Y6470D02*
D03*
Y21470D02*
D03*
X44450Y80645D02*
D03*
Y95645D02*
D03*
X113665Y40880D02*
D03*
Y55880D02*
D03*
X66675Y181610D02*
D03*
Y166610D02*
D03*
X101600Y55880D02*
D03*
Y40880D02*
D03*
X93980Y21470D02*
D03*
Y6470D02*
D03*
X33655Y80645D02*
D03*
Y95645D02*
D03*
X150495Y98665D02*
D03*
Y113665D02*
D03*
D20*
X134620Y188595D02*
D03*
X122620D02*
D03*
D27*
X68580Y8255D02*
D03*
X134620Y201295D02*
D03*
D28*
X55880Y8255D02*
D03*
X121920Y201295D02*
D03*
D32*
X143510Y148543D02*
Y169640D01*
X147133Y173263D01*
X140360Y143825D02*
X143090Y146555D01*
Y148123D01*
X143510Y148543D01*
X133985Y69215D02*
X134303Y69532D01*
Y106362D01*
X80126Y152678D02*
Y154577D01*
X87630Y162082D01*
X129215Y123190D02*
X130835Y124810D01*
X102014Y123190D02*
X129215D01*
X38280Y35745D02*
X53913D01*
X56306Y38137D01*
X59055D01*
X97899Y6241D02*
X98306D01*
X104818Y12753D01*
Y13289D01*
X72411Y21799D02*
X80645D01*
X80974Y21470D01*
X93980D01*
X25400Y26320D02*
X29495Y22225D01*
X25400Y26320D02*
Y43685D01*
X29495Y22225D02*
X44450D01*
X19019Y7225D02*
X31750D01*
X94847Y35745D02*
X101382Y29210D01*
X129208D02*
X141403Y17015D01*
X101382Y29210D02*
X129208D01*
X119243Y34570D02*
X121475Y36802D01*
X108087Y34570D02*
X119243D01*
X104330Y38327D02*
X108087Y34570D01*
X101600Y40880D02*
X103100D01*
X104330Y39650D01*
Y38327D02*
Y39650D01*
X100100Y40880D02*
X101600D01*
X121475Y36802D02*
Y59958D01*
X25400Y43685D02*
X30085Y48370D01*
X12700Y10795D02*
X15449D01*
X19019Y7225D01*
X87630Y162082D02*
Y181610D01*
X66675D02*
X87630D01*
X80405Y192175D02*
X84455Y188125D01*
X87630D01*
X80405Y192175D02*
Y193675D01*
X87630Y181610D02*
Y188125D01*
X55232Y78930D02*
X57825D01*
X52350Y81812D02*
Y92573D01*
X57825Y78930D02*
X58420Y78335D01*
Y76200D02*
Y78335D01*
X52350Y81812D02*
X55232Y78930D01*
X134303Y106362D02*
X134620Y106680D01*
X117274D02*
X119380D01*
X109796Y99651D02*
X110245D01*
X99146Y99411D02*
X109557D01*
X110245Y99651D02*
X117274Y106680D01*
X109557Y99411D02*
X109796Y99651D01*
X101443Y123761D02*
X102014Y124331D01*
X73596Y123761D02*
X101443D01*
X93905Y94170D02*
X99146Y99411D01*
X73025Y123190D02*
X73596Y123761D01*
X82510Y77430D02*
Y82775D01*
X93905Y94170D01*
X164440Y130175D02*
X166920Y127695D01*
X161552Y130175D02*
X164440D01*
X113852Y136743D02*
Y152022D01*
Y136743D02*
X115340Y135255D01*
X156472D01*
X161552Y130175D01*
X112364Y153510D02*
X113852Y152022D01*
X111325Y153510D02*
X112364D01*
X110095Y154740D02*
Y156240D01*
Y154740D02*
X111325Y153510D01*
X102152Y156240D02*
X110095D01*
X176000Y150787D02*
Y169415D01*
X169228Y144015D02*
X176000Y150787D01*
X164440Y180975D02*
X176000Y169415D01*
X159652Y144015D02*
X169228D01*
X152360Y151307D02*
X159652Y144015D01*
X152360Y151307D02*
Y154980D01*
X151130Y156210D02*
X152360Y154980D01*
X149860Y123825D02*
X150495Y123190D01*
Y113665D02*
Y123190D01*
X125125Y156210D02*
X136130D01*
X125095Y156240D02*
X125125Y156210D01*
X118302Y164533D02*
X125095Y157740D01*
X114613Y164533D02*
X118302D01*
X109633Y169513D02*
X114613Y164533D01*
X109633Y169513D02*
Y173263D01*
X125095Y156240D02*
Y157740D01*
X122270Y188945D02*
X122620Y188595D01*
X122270Y188945D02*
Y200945D01*
X121920Y201295D02*
X122270Y200945D01*
X134620Y188595D02*
Y201295D01*
Y187845D02*
X140472Y181993D01*
X142153D02*
X147133Y177013D01*
Y173263D02*
Y177013D01*
X134620Y187845D02*
Y188595D01*
X140472Y181993D02*
X142153D01*
X116768D02*
X122620Y187845D01*
X114613Y181993D02*
X116768D01*
X109633Y177013D02*
X114613Y181993D01*
X109633Y173263D02*
Y177013D01*
X122620Y187845D02*
Y188595D01*
X151130Y57387D02*
Y98030D01*
X150495Y98665D02*
X151130Y98030D01*
X90293Y203255D02*
X96143Y197406D01*
X176000Y23787D02*
Y109563D01*
X166920Y118644D02*
X176000Y109563D01*
X166920Y118644D02*
Y127695D01*
X141403Y17015D02*
X169228D01*
X176000Y23787D01*
X65365Y99278D02*
Y109555D01*
X49050Y125870D02*
X65365Y109555D01*
X59055Y97790D02*
Y106008D01*
X35785Y122093D02*
X49530Y108348D01*
X59055Y96290D02*
Y97790D01*
X49530Y100725D02*
Y108348D01*
X42285Y122778D02*
X59055Y106008D01*
X100358Y84010D02*
X104788Y79580D01*
X110798Y65968D02*
X115465D01*
X104788Y71979D02*
Y79580D01*
X115465Y65968D02*
X121475Y59958D01*
X92202Y84010D02*
X100358D01*
X104788Y71979D02*
X110798Y65968D01*
X109410Y58635D02*
X112165Y55880D01*
X109410Y58635D02*
Y59958D01*
X96280Y73088D02*
X109410Y59958D01*
X157960Y174495D02*
X164440Y180975D01*
X151130Y57387D02*
X152880Y55637D01*
X162778D01*
X164440Y53975D01*
X46540Y42685D02*
X50090Y46235D01*
Y61562D01*
X38655Y42620D02*
X45791D01*
X45856Y42685D02*
X46540D01*
X45791Y42620D02*
X45856Y42685D01*
X50090Y61562D02*
X51578Y63050D01*
X87203D01*
X96280Y72128D01*
X85358Y68390D02*
X88780Y71812D01*
X50990Y68390D02*
X85358D01*
X96280Y72128D02*
Y73088D01*
X44450Y74930D02*
X50990Y68390D01*
X38280Y42245D02*
X38655Y42620D01*
X88780Y71812D02*
Y80588D01*
X44450Y74930D02*
Y80645D01*
X69470Y24739D02*
Y51255D01*
X73085Y54870D02*
X80905D01*
X69470Y51255D02*
X73085Y54870D01*
X88780Y80588D02*
X92202Y84010D01*
X81490Y42455D02*
X98525D01*
X69470Y24739D02*
X72411Y21799D01*
X29447Y57785D02*
X29460D01*
X25786Y99664D02*
X31213Y105091D01*
X33655Y67945D02*
Y80645D01*
X23495Y73187D02*
X25786Y75478D01*
Y99664D01*
X23495Y63737D02*
X29447Y57785D01*
X29460D02*
X32000Y55245D01*
X23495Y63737D02*
Y73187D01*
X32000Y55245D02*
X38280D01*
X96143Y162249D02*
Y197406D01*
Y162249D02*
X102152Y156240D01*
X45085Y21590D02*
X47416Y23921D01*
X30085Y48370D02*
X37905D01*
X36475Y107035D02*
Y108070D01*
X28910Y115634D02*
X36475Y108070D01*
X35785Y122093D02*
Y131885D01*
X49050Y125870D02*
Y131620D01*
X42285Y122778D02*
Y131885D01*
X28910Y115634D02*
Y132260D01*
X48410D02*
X49050Y131620D01*
X44450Y95645D02*
X45950D01*
X47180Y96875D02*
Y98375D01*
X45950Y95645D02*
X47180Y96875D01*
Y98375D02*
X49530Y100725D01*
X81280Y76200D02*
X82510Y77430D01*
X68580Y8255D02*
X80645D01*
X45085Y8046D02*
X45294Y8255D01*
X55880D01*
X37905Y48370D02*
X38280Y48745D01*
X44450Y22225D02*
X45085Y21590D01*
X81655Y49120D02*
X99662D01*
X101600Y51058D01*
Y55880D01*
X98154Y138886D02*
X99060Y137980D01*
X66675Y138221D02*
X94979D01*
X31750Y151765D02*
X66675D01*
Y166610D01*
X96280Y73088D02*
Y74700D01*
Y75450D02*
Y76200D01*
Y74700D02*
Y75450D01*
X29285Y154230D02*
Y174885D01*
Y154230D02*
X31750Y151765D01*
X33655Y95885D02*
X44450D01*
X81280Y42245D02*
X81490Y42455D01*
X81280Y35745D02*
X94847D01*
X98525Y42455D02*
X100100Y40880D01*
X101600Y51058D02*
X103088Y49570D01*
X112177D01*
X113665Y48082D01*
Y40880D02*
Y48082D01*
X81280Y48745D02*
X81655Y49120D01*
X80905Y54870D02*
X81280Y55245D01*
X112165Y55880D02*
X113665D01*
X73420Y76200D02*
X81280D01*
X64539Y89725D02*
X66027Y91213D01*
X59890Y89725D02*
X64539D01*
X66027Y91213D02*
Y94642D01*
X69175Y97790D01*
X58660Y88495D02*
X59890Y89725D01*
X58660Y86995D02*
Y88495D01*
X65365Y99278D02*
X66853Y97790D01*
X69175D02*
X74055D01*
X66853D02*
X69175D01*
X41910Y132260D02*
X42285Y131885D01*
X44450Y95645D02*
Y95885D01*
X57825Y95060D02*
X59055Y96290D01*
X54837Y95060D02*
X57825D01*
X52350Y92573D02*
X54837Y95060D01*
X80563Y92410D02*
Y107650D01*
X73660Y86995D02*
Y88495D01*
X74890Y89725D01*
X77878D01*
X80563Y92410D01*
Y107650D02*
X95740D01*
X98280Y108285D02*
X98425Y108430D01*
X58338Y193675D02*
X65405D01*
X56850Y192187D02*
X58338Y193675D01*
X56850Y169380D02*
Y192187D01*
X55935Y203255D02*
X90293D01*
X48410Y195730D02*
X55935Y203255D01*
X39400Y163450D02*
X50920D01*
X56850Y169380D01*
X35785Y167065D02*
X39400Y163450D01*
X35035Y175635D02*
X35410Y175260D01*
X35785Y174885D01*
X28335Y192175D02*
X35035Y185475D01*
Y175635D02*
Y185475D01*
X28335Y192175D02*
Y193675D01*
X13335Y180975D02*
Y193675D01*
Y200442D01*
X41910Y175260D02*
Y200442D01*
X40422Y201930D02*
X41910Y200442D01*
X14823Y201930D02*
X40422D01*
X13335Y200442D02*
X14823Y201930D01*
X48410Y175260D02*
Y195730D01*
X28910Y175260D02*
X29285Y174885D01*
X35785Y167065D02*
Y174885D01*
X125095Y201325D02*
X125127Y201292D01*
D33*
X13335Y180975D02*
D03*
Y155575D02*
D03*
Y130175D02*
D03*
Y104775D02*
D03*
Y79375D02*
D03*
Y53975D02*
D03*
X164440Y155575D02*
D03*
Y130175D02*
D03*
Y104775D02*
D03*
Y79375D02*
D03*
Y53975D02*
D03*
Y28575D02*
D03*
D34*
X13335Y28575D02*
D03*
X164440Y180975D02*
D03*
D35*
X117475Y6985D02*
D03*
X130175D02*
D03*
D36*
X142875D02*
D03*
D37*
X133985Y69215D02*
D03*
X80126Y152678D02*
D03*
X59055Y38137D02*
D03*
X104818Y13289D02*
D03*
X12700Y10795D02*
D03*
X134620Y106680D02*
D03*
X119380D02*
D03*
X102014Y124331D02*
D03*
X73025Y123190D02*
D03*
X33655Y67945D02*
D03*
X36475Y105535D02*
D03*
D38*
X48410Y132260D02*
D03*
X41910D02*
D03*
X35410D02*
D03*
X28910D02*
D03*
X48410Y175260D02*
D03*
X41910D02*
D03*
X35410D02*
D03*
X28910D02*
D03*
D39*
X81280Y55245D02*
D03*
Y48745D02*
D03*
Y42245D02*
D03*
Y35745D02*
D03*
X38280Y55245D02*
D03*
Y48745D02*
D03*
Y42245D02*
D03*
Y35745D02*
D03*
D40*
X94979Y138221D02*
D03*
Y108221D02*
D03*
D41*
X109633Y173263D02*
D03*
X147133D02*
D03*
D42*
X140360Y143825D02*
D03*
X130860Y123825D02*
D03*
X149860D02*
D03*
D43*
X80645Y21799D02*
D03*
Y8255D02*
D03*
X66675Y151765D02*
D03*
Y138221D02*
D03*
X45085Y21590D02*
D03*
Y8046D02*
D03*
M02*
