G04*
G04 #@! TF.GenerationSoftware,Altium Limited,Altium Designer,22.2.1 (43)*
G04*
G04 Layer_Color=65535*
%FSLAX44Y44*%
%MOMM*%
G71*
G04*
G04 #@! TF.SameCoordinates,1728C203-2672-44AB-99B5-9D0C7A82A750*
G04*
G04*
G04 #@! TF.FilePolarity,Positive*
G04*
G01*
G75*
%ADD10C,0.2500*%
%ADD11C,0.6000*%
%ADD12C,0.2000*%
%ADD13C,0.0635*%
%ADD14C,0.1000*%
G36*
X69988Y88603D02*
X70592D01*
Y88403D01*
X70994D01*
Y88201D01*
X71396D01*
Y88000D01*
X71597D01*
Y87799D01*
X71798D01*
Y87598D01*
X71999D01*
Y85789D01*
X71798D01*
Y85588D01*
X71597D01*
Y85386D01*
X71396D01*
Y85185D01*
X70994D01*
Y84984D01*
X70592D01*
Y84783D01*
X68581D01*
Y84984D01*
X67978D01*
Y85185D01*
X67576D01*
Y85386D01*
X67375D01*
Y85588D01*
X67174D01*
Y85789D01*
X66972D01*
Y86191D01*
X66771D01*
Y86392D01*
X67174D01*
Y86593D01*
X67576D01*
Y86794D01*
X67777D01*
Y86593D01*
X67978D01*
Y86392D01*
X68179D01*
Y86191D01*
X68380D01*
Y85990D01*
X68782D01*
Y85789D01*
X70391D01*
Y85990D01*
X70592D01*
Y86191D01*
X70793D01*
Y86392D01*
X70994D01*
Y86995D01*
X70793D01*
Y87196D01*
X70592D01*
Y87397D01*
X70190D01*
Y87598D01*
X69788D01*
Y87799D01*
X68983D01*
Y88000D01*
X68380D01*
Y88201D01*
X67978D01*
Y88403D01*
X67576D01*
Y88603D01*
X67375D01*
Y89006D01*
X67174D01*
Y89609D01*
X66972D01*
Y89810D01*
X67174D01*
Y90614D01*
X67375D01*
Y91016D01*
X67576D01*
Y91217D01*
X67978D01*
Y91419D01*
X68380D01*
Y91620D01*
X70592D01*
Y91419D01*
X70994D01*
Y91217D01*
X71396D01*
Y91016D01*
X71597D01*
Y90815D01*
X71798D01*
Y90212D01*
X71396D01*
Y90011D01*
X70793D01*
Y90212D01*
X70592D01*
Y90413D01*
X70391D01*
Y90614D01*
X69586D01*
Y90815D01*
X69385D01*
Y90614D01*
X68782D01*
Y90413D01*
X68380D01*
Y90011D01*
X68179D01*
Y89609D01*
X68380D01*
Y89207D01*
X68782D01*
Y89006D01*
X69184D01*
Y88805D01*
X69788D01*
Y88603D01*
X69988D01*
D02*
G37*
G36*
X73809D02*
Y84984D01*
X72602D01*
Y91620D01*
X73809D01*
Y88805D01*
Y88603D01*
D02*
G37*
G36*
X72602Y93831D02*
Y94233D01*
X73809D01*
Y92826D01*
X72602D01*
Y93630D01*
Y93831D01*
D02*
G37*
G36*
X79640Y91419D02*
X80042D01*
Y91217D01*
X80444D01*
Y91016D01*
X80645D01*
Y90815D01*
X81047D01*
Y90614D01*
X81248D01*
Y90212D01*
X81449D01*
Y90011D01*
X81650D01*
Y89609D01*
X81851D01*
Y88805D01*
X82052D01*
Y87598D01*
X81851D01*
Y86995D01*
X81650D01*
Y86593D01*
X81449D01*
Y86191D01*
X81248D01*
Y85990D01*
X81047D01*
Y85789D01*
X80846D01*
Y85588D01*
X80645D01*
Y85386D01*
X80444D01*
Y85185D01*
X80042D01*
Y84984D01*
X79439D01*
Y84783D01*
X77428D01*
Y84984D01*
X76825D01*
Y85185D01*
X76423D01*
Y85386D01*
X75819D01*
Y82169D01*
X74814D01*
Y91620D01*
X75819D01*
Y91016D01*
X76222D01*
Y91217D01*
X76624D01*
Y91419D01*
X77026D01*
Y91620D01*
X79640D01*
Y91419D01*
D02*
G37*
G36*
X83058Y94233D02*
X83661D01*
Y84984D01*
X82656D01*
Y94233D01*
X82857D01*
X83058D01*
D02*
G37*
G36*
X91503Y84984D02*
X90497D01*
Y85386D01*
X90296D01*
Y85588D01*
X90095D01*
Y85386D01*
X89894D01*
Y85185D01*
X89492D01*
Y84984D01*
X88889D01*
Y84783D01*
X86878D01*
Y84984D01*
X86275D01*
Y85185D01*
X85873D01*
Y85386D01*
X85672D01*
Y85588D01*
X85471D01*
Y85789D01*
X85269D01*
Y85990D01*
X85069D01*
Y86191D01*
X84867D01*
Y86392D01*
X84666D01*
Y86794D01*
X84465D01*
Y87598D01*
X84264D01*
Y89006D01*
X84465D01*
Y89609D01*
X84666D01*
Y90011D01*
X84867D01*
Y90413D01*
X85069D01*
Y90614D01*
X85269D01*
Y90815D01*
X85471D01*
Y91016D01*
X85873D01*
Y91217D01*
X86074D01*
Y91419D01*
X86677D01*
Y91620D01*
X89090D01*
Y91419D01*
X89693D01*
Y91217D01*
X90095D01*
Y91016D01*
X90497D01*
Y91620D01*
X91503D01*
Y84984D01*
D02*
G37*
G36*
X93714Y91016D02*
X94116D01*
Y91217D01*
X94318D01*
Y91419D01*
X94921D01*
Y91620D01*
X97333D01*
Y91419D01*
X97937D01*
Y91217D01*
X98138D01*
Y91016D01*
X98540D01*
Y90815D01*
X98741D01*
Y90614D01*
X98942D01*
Y90413D01*
X99143D01*
Y90011D01*
X99344D01*
Y89609D01*
X99545D01*
Y89006D01*
X99746D01*
Y87397D01*
X99545D01*
Y86794D01*
X99344D01*
Y86392D01*
X99143D01*
Y86191D01*
X98942D01*
Y85990D01*
X98741D01*
Y85789D01*
X98540D01*
Y85588D01*
X98339D01*
Y85386D01*
X98138D01*
Y85185D01*
X97736D01*
Y84984D01*
X97132D01*
Y84783D01*
X95122D01*
Y84984D01*
X94519D01*
Y85185D01*
X94116D01*
Y85386D01*
X93915D01*
Y85588D01*
X93714D01*
Y84984D01*
X92508D01*
Y94233D01*
X93714D01*
Y91016D01*
D02*
G37*
%LPC*%
G36*
X79238Y90614D02*
X77428D01*
Y90413D01*
X77026D01*
Y90212D01*
X76825D01*
Y90011D01*
X76624D01*
Y89810D01*
X76423D01*
Y89609D01*
X76222D01*
Y89207D01*
X76020D01*
Y88603D01*
X75819D01*
Y87799D01*
X76020D01*
Y87196D01*
X76222D01*
Y86794D01*
X76423D01*
Y86593D01*
X76624D01*
Y86392D01*
X76825D01*
Y86191D01*
X77227D01*
Y85990D01*
X77629D01*
Y85789D01*
X79036D01*
Y85990D01*
X79640D01*
Y86191D01*
X79841D01*
Y86392D01*
X80042D01*
Y86593D01*
X80243D01*
Y86794D01*
X80444D01*
Y86995D01*
X80645D01*
Y87397D01*
X80846D01*
Y89006D01*
X80645D01*
Y89408D01*
X80444D01*
Y89810D01*
X80243D01*
Y90011D01*
X80042D01*
Y90212D01*
X79640D01*
Y90413D01*
X79238D01*
Y90614D01*
D02*
G37*
G36*
X88688D02*
X87079D01*
Y90413D01*
X86677D01*
Y90212D01*
X86275D01*
Y90011D01*
X86074D01*
Y89810D01*
X85873D01*
Y89408D01*
X85672D01*
Y89006D01*
X85471D01*
Y87397D01*
X85672D01*
Y86995D01*
X85873D01*
Y86794D01*
X86074D01*
Y86392D01*
X86476D01*
Y86191D01*
X86677D01*
Y85990D01*
X87280D01*
Y85789D01*
X88487D01*
Y85990D01*
X89090D01*
Y86191D01*
X89492D01*
Y86392D01*
X89693D01*
Y86593D01*
X89894D01*
Y86794D01*
X90095D01*
Y87196D01*
X90296D01*
Y88000D01*
X90497D01*
Y88603D01*
X90296D01*
Y89207D01*
X90095D01*
Y89609D01*
X89894D01*
Y89810D01*
X89693D01*
Y90011D01*
X89492D01*
Y90212D01*
X89291D01*
Y90413D01*
X88688D01*
Y90614D01*
D02*
G37*
G36*
X96931D02*
X95323D01*
Y90413D01*
X94921D01*
Y90212D01*
X94519D01*
Y90011D01*
X94318D01*
Y89810D01*
X94116D01*
Y89609D01*
X93915D01*
Y89207D01*
X93714D01*
Y87397D01*
X93915D01*
Y86995D01*
X94116D01*
Y86593D01*
X94318D01*
Y86392D01*
X94720D01*
Y86191D01*
X94921D01*
Y85990D01*
X95524D01*
Y85789D01*
X96730D01*
Y85990D01*
X97333D01*
Y86191D01*
X97535D01*
Y86392D01*
X97937D01*
Y86593D01*
X98138D01*
Y86995D01*
X98339D01*
Y87397D01*
X98540D01*
Y89207D01*
X98339D01*
Y89609D01*
X98138D01*
Y89810D01*
X97937D01*
Y90011D01*
X97736D01*
Y90212D01*
X97333D01*
Y90413D01*
X96931D01*
Y90614D01*
D02*
G37*
%LPD*%
D10*
X25100Y132530D02*
G03*
X25100Y132530I-1250J0D01*
G01*
X81980Y8255D02*
G03*
X81980Y8255I-1250J0D01*
G01*
X154145Y144145D02*
G03*
X154145Y144145I-1250J0D01*
G01*
X148020Y201295D02*
G03*
X148020Y201295I-1250J0D01*
G01*
X115550Y159015D02*
G03*
X115550Y159015I-1250J0D01*
G01*
X154875Y6985D02*
G03*
X154875Y6985I-1250J0D01*
G01*
D11*
X143095Y121895D02*
G03*
X143095Y121895I-3000J0D01*
G01*
D12*
X54115Y92765D02*
X56615D01*
X54115Y83765D02*
X56615D01*
X108225Y168468D02*
Y185968D01*
X91195Y168415D02*
Y185915D01*
X151405Y20163D02*
Y37663D01*
X134375Y20110D02*
Y37610D01*
X72445Y160675D02*
Y163175D01*
X63445Y160675D02*
Y163175D01*
X56850Y146030D02*
Y163030D01*
X25850Y146030D02*
Y163030D01*
X56850D01*
X25850Y146030D02*
X56850D01*
X1285Y12075D02*
X25385D01*
Y197475D01*
X1285Y12075D02*
Y197475D01*
X25385D01*
X47030Y-3445D02*
X77430D01*
X47030Y17605D02*
Y19955D01*
Y-3445D02*
Y-1095D01*
Y19955D02*
X77430D01*
Y17605D02*
Y19955D01*
Y-3445D02*
Y-1095D01*
X53995Y102925D02*
X56495D01*
X53995Y93925D02*
X56495D01*
X100095Y131895D02*
X150095D01*
X100095Y99895D02*
X150095D01*
Y131895D01*
X100095Y99895D02*
Y131895D01*
X152390Y12075D02*
X176490D01*
Y197475D01*
X152390Y12075D02*
Y197475D01*
X176490D01*
X64625Y48015D02*
X82125D01*
X64572Y65045D02*
X82072D01*
X81860Y19825D02*
Y22325D01*
X90860Y19825D02*
Y22325D01*
X138705Y20163D02*
Y37663D01*
X121675Y20110D02*
Y37610D01*
X134675Y48160D02*
Y50660D01*
X125675Y48160D02*
Y50660D01*
X146510Y175555D02*
Y178055D01*
X137510Y175555D02*
Y178055D01*
X108485Y50855D02*
X110985D01*
X108485Y41855D02*
X110985D01*
X93485Y61015D02*
X95985D01*
X93485Y52015D02*
X95985D01*
X147375Y48160D02*
Y50660D01*
X138375Y48160D02*
Y50660D01*
X113070Y189595D02*
X143470D01*
X113070Y210645D02*
Y212995D01*
Y189595D02*
Y191945D01*
Y212995D02*
X143470D01*
Y210645D02*
Y212995D01*
Y189595D02*
Y191945D01*
X108945Y20057D02*
Y37557D01*
X125975Y20110D02*
Y37610D01*
X61735Y203255D02*
X64235D01*
X61735Y194255D02*
X64235D01*
X46548Y103230D02*
X64048D01*
X46495Y120260D02*
X63995D01*
X121550Y167015D02*
X123550D01*
X121550Y187515D02*
X123550D01*
X149225Y16085D02*
Y17685D01*
X111125D02*
X149225D01*
X111125Y13715D02*
Y17685D01*
Y-3715D02*
Y255D01*
Y-3715D02*
X149225D01*
Y-2115D01*
D13*
X69849Y81023D02*
X67310D01*
Y77214D01*
X69849D01*
X67310Y79119D02*
X68580D01*
X71119Y81023D02*
X73658D01*
X72388D01*
Y77214D01*
X74928Y81023D02*
Y77214D01*
Y79119D01*
X77467D01*
Y81023D01*
Y77214D01*
X67310Y71120D02*
Y73659D01*
X68580Y74929D01*
X69849Y73659D01*
Y71120D01*
Y73024D01*
X67310D01*
X73658Y73659D02*
X71754D01*
X71119Y73024D01*
Y71755D01*
X71754Y71120D01*
X73658D01*
X75562Y74294D02*
Y73659D01*
X74928D01*
X76197D01*
X75562D01*
Y71755D01*
X76197Y71120D01*
X78102D02*
X79371D01*
X78736D01*
Y73659D01*
X78102D01*
X81910Y74294D02*
Y73659D01*
X81276D01*
X82545D01*
X81910D01*
Y71755D01*
X82545Y71120D01*
X85084D02*
X86354D01*
X86989Y71755D01*
Y73024D01*
X86354Y73659D01*
X85084D01*
X84450Y73024D01*
Y71755D01*
X85084Y71120D01*
X88258Y73659D02*
Y71755D01*
X88893Y71120D01*
X90798D01*
Y73659D01*
X94606D02*
X92702D01*
X92067Y73024D01*
Y71755D01*
X92702Y71120D01*
X94606D01*
X95876Y74929D02*
Y71120D01*
Y73024D01*
X96511Y73659D01*
X97780D01*
X98415Y73024D01*
Y71120D01*
D14*
X128553Y129865D02*
X123555D01*
X122555Y128865D01*
Y126866D01*
X123555Y125866D01*
X128553D01*
X122555Y123867D02*
Y121868D01*
Y122867D01*
X128553D01*
X127553Y123867D01*
M02*
