G04*
G04 #@! TF.GenerationSoftware,Altium Limited,Altium Designer,22.2.1 (43)*
G04*
G04 Layer_Color=0*
%FSLAX44Y44*%
%MOMM*%
G71*
G04*
G04 #@! TF.SameCoordinates,1728C203-2672-44AB-99B5-9D0C7A82A750*
G04*
G04*
G04 #@! TF.FilePolarity,Positive*
G04*
G01*
G75*
%ADD14C,0.1000*%
D14*
X55365Y83265D02*
Y93265D01*
X50365Y88265D02*
X60365D01*
X94695Y177165D02*
X104695D01*
X99695Y172165D02*
Y182165D01*
X137875Y28860D02*
X147875D01*
X142875Y23860D02*
Y33860D01*
X67945Y156925D02*
Y166925D01*
X62945Y161925D02*
X72945D01*
X57230Y8255D02*
X67230D01*
X62230Y3255D02*
Y13255D01*
X50245Y98425D02*
X60245D01*
X55245Y93425D02*
Y103425D01*
X68375Y56515D02*
X78375D01*
X73375Y51515D02*
Y61515D01*
X81360Y21075D02*
X91360D01*
X86360Y16075D02*
Y26075D01*
X125175Y28860D02*
X135175D01*
X130175Y23860D02*
Y33860D01*
X125175Y49410D02*
X135175D01*
X130175Y44410D02*
Y54410D01*
X137010Y176805D02*
X147010D01*
X142010Y171805D02*
Y181805D01*
X109735Y41355D02*
Y51355D01*
X104735Y46355D02*
X114735D01*
X94735Y51515D02*
Y61515D01*
X89735Y56515D02*
X99735D01*
X137875Y49410D02*
X147875D01*
X142875Y44410D02*
Y54410D01*
X123270Y201295D02*
X133270D01*
X128270Y196295D02*
Y206295D01*
X112475Y28860D02*
X122475D01*
X117475Y23860D02*
Y33860D01*
X62985Y193755D02*
Y203755D01*
X57985Y198755D02*
X67985D01*
X55245Y106760D02*
Y116760D01*
X50245Y111760D02*
X60245D01*
X122550Y172265D02*
Y182265D01*
X117550Y177265D02*
X127550D01*
M02*
