M48
;Layer_Color=9474304
;FILE_FORMAT=4:4
METRIC,LZ
;TYPE=PLATED
T1F00S00C0.7000
T2F00S00C0.7112
T3F00S00C1.0200
%
T01
X0005588Y00008255
X0006858
X00117475Y00006985
X00130175
X00142875
X0013462Y00201295
X0012192
T02
X000127Y00010795
X00059055Y00038137
X00033655Y00067945
X00036475Y00105535
X00073025Y0012319
X00102014Y00124331
X0011938Y0010668
X0013462
X00133985Y00069215
X00104818Y00013289
X00080126Y00152678
T03
X00013335Y00028575
Y00053975
Y00079375
Y00104775
Y00130175
X0016444Y00130175
Y00104775
Y00079375
Y00053975
Y00028575
Y00155575
Y00180975
X00013335Y00180975
Y00155575
M30
