G04*
G04 #@! TF.GenerationSoftware,Altium Limited,Altium Designer,22.2.1 (43)*
G04*
G04 Layer_Color=255*
%FSLAX44Y44*%
%MOMM*%
G71*
G04*
G04 #@! TF.SameCoordinates,1728C203-2672-44AB-99B5-9D0C7A82A750*
G04*
G04*
G04 #@! TF.FilePolarity,Positive*
G04*
G01*
G75*
%ADD15R,0.5000X0.8000*%
%ADD17R,0.8000X0.5000*%
%ADD20R,0.7500X0.9000*%
%ADD27R,1.1200X1.1200*%
%ADD28C,1.1200*%
%ADD33C,1.5500*%
%ADD34R,1.5500X1.5500*%
%ADD35C,1.0500*%
%ADD36R,1.0500X1.0500*%
%ADD38O,0.4500X1.6000*%
%ADD39O,1.6000X0.4500*%
%ADD40R,2.6000X1.0000*%
%ADD41R,1.2500X2.0000*%
%ADD42R,0.8000X0.9000*%
%ADD43R,0.9121X1.0578*%
D15*
X59055Y76200D02*
D03*
X74055D02*
D03*
X96280D02*
D03*
X81280D02*
D03*
X59055Y86995D02*
D03*
X74055D02*
D03*
X80405Y193675D02*
D03*
X65405D02*
D03*
X59055Y97790D02*
D03*
X74055D02*
D03*
X28335Y193675D02*
D03*
X13335D02*
D03*
X151130Y156210D02*
D03*
X136130D02*
D03*
X110095Y156240D02*
D03*
X125095D02*
D03*
D17*
X31750Y6470D02*
D03*
Y21470D02*
D03*
X44450Y80645D02*
D03*
Y95645D02*
D03*
X113665Y40880D02*
D03*
Y55880D02*
D03*
X66675Y181610D02*
D03*
Y166610D02*
D03*
X101600Y55880D02*
D03*
Y40880D02*
D03*
X93980Y21470D02*
D03*
Y6470D02*
D03*
X33655Y80645D02*
D03*
Y95645D02*
D03*
X150495Y98665D02*
D03*
Y113665D02*
D03*
D20*
X134620Y188595D02*
D03*
X122620D02*
D03*
D27*
X68580Y8255D02*
D03*
X134620Y201295D02*
D03*
D28*
X55880Y8255D02*
D03*
X121920Y201295D02*
D03*
D33*
X13335Y180975D02*
D03*
Y155575D02*
D03*
Y130175D02*
D03*
Y104775D02*
D03*
Y79375D02*
D03*
Y53975D02*
D03*
X164440Y155575D02*
D03*
Y130175D02*
D03*
Y104775D02*
D03*
Y79375D02*
D03*
Y53975D02*
D03*
Y28575D02*
D03*
D34*
X13335Y28575D02*
D03*
X164440Y180975D02*
D03*
D35*
X117475Y6985D02*
D03*
X130175D02*
D03*
D36*
X142875D02*
D03*
D38*
X48410Y132260D02*
D03*
X41910D02*
D03*
X35410D02*
D03*
X28910D02*
D03*
X48410Y175260D02*
D03*
X41910D02*
D03*
X35410D02*
D03*
X28910D02*
D03*
D39*
X81280Y55245D02*
D03*
Y48745D02*
D03*
Y42245D02*
D03*
Y35745D02*
D03*
X38280Y55245D02*
D03*
Y48745D02*
D03*
Y42245D02*
D03*
Y35745D02*
D03*
D40*
X94979Y138221D02*
D03*
Y108221D02*
D03*
D41*
X109633Y173263D02*
D03*
X147133D02*
D03*
D42*
X140360Y143825D02*
D03*
X130860Y123825D02*
D03*
X149860D02*
D03*
D43*
X80645Y21799D02*
D03*
Y8255D02*
D03*
X66675Y151765D02*
D03*
Y138221D02*
D03*
X45085Y21590D02*
D03*
Y8046D02*
D03*
M02*
