G04*
G04 #@! TF.GenerationSoftware,Altium Limited,Altium Designer,22.2.1 (43)*
G04*
G04 Layer_Color=8388736*
%FSLAX44Y44*%
%MOMM*%
G71*
G04*
G04 #@! TF.SameCoordinates,1728C203-2672-44AB-99B5-9D0C7A82A750*
G04*
G04*
G04 #@! TF.FilePolarity,Negative*
G04*
G01*
G75*
%ADD15R,0.5000X0.8000*%
%ADD16R,0.9000X0.7500*%
%ADD17R,0.8000X0.5000*%
%ADD20R,0.7500X0.9000*%
%ADD21R,0.7000X0.8000*%
%ADD22C,0.6300*%
%ADD23O,0.6532X2.1032*%
G04:AMPARAMS|DCode=24|XSize=0.8532mm|YSize=1.8532mm|CornerRadius=0.1504mm|HoleSize=0mm|Usage=FLASHONLY|Rotation=0.000|XOffset=0mm|YOffset=0mm|HoleType=Round|Shape=RoundedRectangle|*
%AMROUNDEDRECTD24*
21,1,0.8532,1.5525,0,0,0.0*
21,1,0.5525,1.8532,0,0,0.0*
1,1,0.3007,0.2763,-0.7763*
1,1,0.3007,-0.2763,-0.7763*
1,1,0.3007,-0.2763,0.7763*
1,1,0.3007,0.2763,0.7763*
%
%ADD24ROUNDEDRECTD24*%
%ADD25C,1.7532*%
%ADD26R,1.7532X1.7532*%
%ADD27R,1.1200X1.1200*%
%ADD28C,1.1200*%
%ADD29C,1.2532*%
%ADD30R,1.2532X1.2532*%
%ADD31C,1.4732*%
G36*
X117800Y167015D02*
X112100D01*
X110800Y168315D01*
Y175015D01*
X117800D01*
Y167015D01*
D02*
G37*
D15*
X47865Y88265D02*
D03*
X62865D02*
D03*
X47745Y98425D02*
D03*
X62745D02*
D03*
X102235Y46355D02*
D03*
X117235D02*
D03*
X87235Y56515D02*
D03*
X102235D02*
D03*
X55485Y198755D02*
D03*
X70485D02*
D03*
D16*
X99695Y183165D02*
D03*
Y171165D02*
D03*
X142875Y34860D02*
D03*
Y22860D02*
D03*
X130175Y34860D02*
D03*
Y22860D02*
D03*
X117475D02*
D03*
Y34860D02*
D03*
D17*
X67945Y169425D02*
D03*
Y154425D02*
D03*
X86360Y13575D02*
D03*
Y28575D02*
D03*
X130175Y56910D02*
D03*
Y41910D02*
D03*
X142010Y184305D02*
D03*
Y169305D02*
D03*
X142875Y56910D02*
D03*
Y41910D02*
D03*
D20*
X79375Y56515D02*
D03*
X67375D02*
D03*
X61245Y111760D02*
D03*
X49245D02*
D03*
D21*
X114300Y183515D02*
D03*
X130800D02*
D03*
Y171015D02*
D03*
D22*
X114300D02*
D03*
D23*
X51100Y176530D02*
D03*
X44600D02*
D03*
X38100D02*
D03*
X31600D02*
D03*
X51100Y132530D02*
D03*
X44600D02*
D03*
X38100D02*
D03*
X31600D02*
D03*
D24*
X144145Y144145D02*
D03*
X131445D02*
D03*
X118745D02*
D03*
X106045D02*
D03*
X144145Y87645D02*
D03*
X131445D02*
D03*
X118745D02*
D03*
X106045D02*
D03*
D25*
X13335Y180975D02*
D03*
Y155575D02*
D03*
Y130175D02*
D03*
Y104775D02*
D03*
Y79375D02*
D03*
Y53975D02*
D03*
X164440Y155575D02*
D03*
Y130175D02*
D03*
Y104775D02*
D03*
Y79375D02*
D03*
Y53975D02*
D03*
Y28575D02*
D03*
D26*
X13335Y28575D02*
D03*
X164440Y180975D02*
D03*
D27*
X68580Y8255D02*
D03*
X134620Y201295D02*
D03*
D28*
X55880Y8255D02*
D03*
X121920Y201295D02*
D03*
D29*
X117475Y6985D02*
D03*
X130175D02*
D03*
D30*
X142875D02*
D03*
D31*
X133985Y69215D02*
D03*
X80126Y152678D02*
D03*
X59055Y38137D02*
D03*
X104818Y13289D02*
D03*
X12700Y10795D02*
D03*
X134620Y106680D02*
D03*
X119380D02*
D03*
X102014Y124331D02*
D03*
X73025Y123190D02*
D03*
X33655Y67945D02*
D03*
X36475Y105535D02*
D03*
M02*
