G04*
G04 #@! TF.GenerationSoftware,Altium Limited,Altium Designer,22.2.1 (43)*
G04*
G04 Layer_Color=65535*
%FSLAX43Y43*%
%MOMM*%
G71*
G04*
G04 #@! TF.SameCoordinates,2A909F52-9C27-4A3D-9E3E-93034AC3C428*
G04*
G04*
G04 #@! TF.FilePolarity,Positive*
G04*
G01*
G75*
%ADD10C,0.250*%
%ADD11C,0.600*%
%ADD12C,0.254*%
%ADD13C,0.200*%
D10*
X47338Y23735D02*
G03*
X47338Y23735I-125J0D01*
G01*
X13215Y25348D02*
G03*
X13215Y25348I-125J0D01*
G01*
X11795Y19843D02*
G03*
X11795Y19843I-125J0D01*
G01*
X45464Y10135D02*
G03*
X45464Y10135I-125J0D01*
G01*
X37553Y22351D02*
G03*
X37553Y22351I-125J0D01*
G01*
X23725Y21612D02*
G03*
X23725Y21612I-125J0D01*
G01*
X29589Y24308D02*
G03*
X29589Y24308I-125J0D01*
G01*
X52068Y6278D02*
G03*
X52068Y6278I-125J0D01*
G01*
X53846Y26357D02*
G03*
X53846Y26357I-125J0D01*
G01*
X12240Y35875D02*
G03*
X12240Y35875I-125J0D01*
G01*
X60337Y1361D02*
G03*
X60337Y1361I-125J0D01*
G01*
X25367Y38848D02*
G03*
X25367Y38848I-125J0D01*
G01*
D11*
X49738Y22455D02*
G03*
X49738Y22455I-300J0D01*
G01*
X11165Y26628D02*
G03*
X11165Y26628I-300J0D01*
G01*
X10690Y17618D02*
G03*
X10690Y17618I-300J0D01*
G01*
X27767Y37568D02*
G03*
X27767Y37568I-300J0D01*
G01*
D12*
X24383Y11921D02*
G03*
X24383Y11921I-127J0D01*
G01*
X21336Y22352D02*
X21082Y22098D01*
Y21591D01*
X21336Y21337D01*
X22352D01*
X22606Y21591D01*
Y22098D01*
X22352Y22352D01*
X22606Y22860D02*
Y23368D01*
Y23114D01*
X21082D01*
X21336Y22860D01*
X22606Y24891D02*
X21082D01*
X21844Y24130D01*
Y25145D01*
X20574Y19939D02*
X20320Y20193D01*
X19813D01*
X19559Y19939D01*
Y18923D01*
X19813Y18669D01*
X20320D01*
X20574Y18923D01*
X21082Y18669D02*
X21590D01*
X21336D01*
Y20193D01*
X21082Y19939D01*
X23367Y18669D02*
X22352D01*
X23367Y19685D01*
Y19939D01*
X23113Y20193D01*
X22606D01*
X22352Y19939D01*
X19888Y12929D02*
Y14452D01*
X20650D01*
X20904Y14198D01*
Y13690D01*
X20650Y13436D01*
X19888D01*
X21412Y14198D02*
X21666Y14452D01*
X22173D01*
X22427Y14198D01*
Y13944D01*
X21920Y13436D01*
Y13183D02*
Y12929D01*
X24155Y41376D02*
Y40107D01*
X24409Y39853D01*
X24917D01*
X25171Y40107D01*
Y41376D01*
X26695D02*
X25679D01*
Y40614D01*
X26187Y40868D01*
X26441D01*
X26695Y40614D01*
Y40107D01*
X26441Y39853D01*
X25933D01*
X25679Y40107D01*
X27202Y41122D02*
X27456Y41376D01*
X27964D01*
X28218Y41122D01*
Y40107D01*
X27964Y39853D01*
X27456D01*
X27202Y40107D01*
Y41122D01*
X18670Y40640D02*
Y42164D01*
X19432D01*
X19686Y41910D01*
Y41402D01*
X19432Y41148D01*
X18670D01*
X19178D02*
X19686Y40640D01*
X21209Y42164D02*
X20193D01*
Y41402D01*
X20701Y41656D01*
X20955D01*
X21209Y41402D01*
Y40894D01*
X20955Y40640D01*
X20447D01*
X20193Y40894D01*
X22733Y42164D02*
X21717D01*
Y41402D01*
X22225Y41656D01*
X22479D01*
X22733Y41402D01*
Y40894D01*
X22479Y40640D01*
X21971D01*
X21717Y40894D01*
X24256Y42164D02*
X23748D01*
X24002D01*
Y40894D01*
X23748Y40640D01*
X23494D01*
X23240Y40894D01*
X26518Y44679D02*
Y46202D01*
X27279D01*
X27533Y45948D01*
Y45440D01*
X27279Y45186D01*
X26518D01*
X27025D02*
X27533Y44679D01*
X29057Y46202D02*
X28041D01*
Y45440D01*
X28549Y45694D01*
X28803D01*
X29057Y45440D01*
Y44933D01*
X28803Y44679D01*
X28295D01*
X28041Y44933D01*
X30326Y44679D02*
Y46202D01*
X29565Y45440D01*
X30580D01*
X32104Y46202D02*
X31596D01*
X31850D01*
Y44933D01*
X31596Y44679D01*
X31342D01*
X31088Y44933D01*
X37440Y25679D02*
Y25425D01*
X37947Y24917D01*
X38455Y25425D01*
Y25679D01*
X37947Y24917D02*
Y24155D01*
X38963D02*
X39471D01*
X39217D01*
Y25679D01*
X38963Y25425D01*
X6121Y23469D02*
Y22200D01*
X6375Y21946D01*
X6883D01*
X7137Y22200D01*
Y23469D01*
X8661Y21946D02*
X7645D01*
X8661Y22961D01*
Y23215D01*
X8407Y23469D01*
X7899D01*
X7645Y23215D01*
X9168Y21946D02*
X9676D01*
X9422D01*
Y23469D01*
X9168Y23215D01*
X6350Y33426D02*
Y32156D01*
X6604Y31902D01*
X7112D01*
X7366Y32156D01*
Y33426D01*
X8889Y31902D02*
X7874D01*
X8889Y32918D01*
Y33172D01*
X8635Y33426D01*
X8127D01*
X7874Y33172D01*
X9397D02*
X9651Y33426D01*
X10159D01*
X10413Y33172D01*
Y32156D01*
X10159Y31902D01*
X9651D01*
X9397Y32156D01*
Y33172D01*
X23750Y25146D02*
Y23876D01*
X24003Y23622D01*
X24511D01*
X24765Y23876D01*
Y25146D01*
X25273Y23622D02*
X25781D01*
X25527D01*
Y25146D01*
X25273Y24892D01*
X26543Y23622D02*
X27050D01*
X26797D01*
Y25146D01*
X26543Y24892D01*
X46126Y26263D02*
Y24994D01*
X46380Y24740D01*
X46888D01*
X47142Y24994D01*
Y26263D01*
X47650Y24740D02*
X48158D01*
X47904D01*
Y26263D01*
X47650Y26009D01*
X57226Y5867D02*
X56972Y6121D01*
X56464D01*
X56210Y5867D01*
Y5613D01*
X56464Y5359D01*
X56972D01*
X57226Y5105D01*
Y4851D01*
X56972Y4597D01*
X56464D01*
X56210Y4851D01*
X57734Y6121D02*
Y4597D01*
X58242Y5105D01*
X58749Y4597D01*
Y6121D01*
X59257Y5867D02*
X59511Y6121D01*
X60019D01*
X60273Y5867D01*
Y4851D01*
X60019Y4597D01*
X59511D01*
X59257Y4851D01*
Y5867D01*
X60781Y4597D02*
X61289D01*
X61035D01*
Y6121D01*
X60781Y5867D01*
X7849Y13868D02*
Y15392D01*
X8610D01*
X8864Y15138D01*
Y14630D01*
X8610Y14376D01*
X7849D01*
X8356D02*
X8864Y13868D01*
X10388D02*
X9372D01*
X10388Y14884D01*
Y15138D01*
X10134Y15392D01*
X9626D01*
X9372Y15138D01*
X10896Y13868D02*
X11403D01*
X11150D01*
Y15392D01*
X10896Y15138D01*
X13181Y13868D02*
X12165D01*
X13181Y14884D01*
Y15138D01*
X12927Y15392D01*
X12419D01*
X12165Y15138D01*
X12014Y19914D02*
Y21437D01*
X12776D01*
X13030Y21183D01*
Y20675D01*
X12776Y20421D01*
X12014D01*
X12522D02*
X13030Y19914D01*
X14553D02*
X13538D01*
X14553Y20929D01*
Y21183D01*
X14299Y21437D01*
X13792D01*
X13538Y21183D01*
X15061Y19914D02*
X15569D01*
X15315D01*
Y21437D01*
X15061Y21183D01*
X16331Y19914D02*
X16839D01*
X16585D01*
Y21437D01*
X16331Y21183D01*
X2896Y13487D02*
Y15011D01*
X3657D01*
X3911Y14757D01*
Y14249D01*
X3657Y13995D01*
X2896D01*
X3403D02*
X3911Y13487D01*
X5435D02*
X4419D01*
X5435Y14503D01*
Y14757D01*
X5181Y15011D01*
X4673D01*
X4419Y14757D01*
X5943Y13487D02*
X6450D01*
X6197D01*
Y15011D01*
X5943Y14757D01*
X7212D02*
X7466Y15011D01*
X7974D01*
X8228Y14757D01*
Y13741D01*
X7974Y13487D01*
X7466D01*
X7212Y13741D01*
Y14757D01*
X30251Y41554D02*
Y43078D01*
X31013D01*
X31267Y42824D01*
Y42316D01*
X31013Y42062D01*
X30251D01*
X30759D02*
X31267Y41554D01*
X32791Y43078D02*
X31775D01*
Y42316D01*
X32283Y42570D01*
X32537D01*
X32791Y42316D01*
Y41808D01*
X32537Y41554D01*
X32029D01*
X31775Y41808D01*
X33298Y42824D02*
X33552Y43078D01*
X34060D01*
X34314Y42824D01*
Y42570D01*
X34060Y42316D01*
X33806D01*
X34060D01*
X34314Y42062D01*
Y41808D01*
X34060Y41554D01*
X33552D01*
X33298Y41808D01*
X26822Y41554D02*
Y43078D01*
X27584D01*
X27838Y42824D01*
Y42316D01*
X27584Y42062D01*
X26822D01*
X27330D02*
X27838Y41554D01*
X29362Y43078D02*
X28346D01*
Y42316D01*
X28854Y42570D01*
X29108D01*
X29362Y42316D01*
Y41808D01*
X29108Y41554D01*
X28600D01*
X28346Y41808D01*
X30885Y41554D02*
X29869D01*
X30885Y42570D01*
Y42824D01*
X30631Y43078D01*
X30123D01*
X29869Y42824D01*
X14352Y33655D02*
Y35179D01*
X15113D01*
X15367Y34925D01*
Y34417D01*
X15113Y34163D01*
X14352D01*
X14859D02*
X15367Y33655D01*
X16891Y35179D02*
X15875D01*
Y34417D01*
X16383Y34671D01*
X16637D01*
X16891Y34417D01*
Y33909D01*
X16637Y33655D01*
X16129D01*
X15875Y33909D01*
X17399Y33655D02*
X17906D01*
X17653D01*
Y35179D01*
X17399Y34925D01*
X13844Y38481D02*
Y40005D01*
X14605D01*
X14859Y39751D01*
Y39243D01*
X14605Y38989D01*
X13844D01*
X14351D02*
X14859Y38481D01*
X16383Y40005D02*
X15367D01*
Y39243D01*
X15875Y39497D01*
X16129D01*
X16383Y39243D01*
Y38735D01*
X16129Y38481D01*
X15621D01*
X15367Y38735D01*
X16891Y39751D02*
X17145Y40005D01*
X17652D01*
X17906Y39751D01*
Y38735D01*
X17652Y38481D01*
X17145D01*
X16891Y38735D01*
Y39751D01*
X32005Y4826D02*
Y6350D01*
X32767D01*
X33021Y6096D01*
Y5588D01*
X32767Y5334D01*
X32005D01*
X32513D02*
X33021Y4826D01*
X34290D02*
Y6350D01*
X33528Y5588D01*
X34544D01*
X35052Y6096D02*
X35306Y6350D01*
X35814D01*
X36068Y6096D01*
Y5842D01*
X35814Y5588D01*
X35560D01*
X35814D01*
X36068Y5334D01*
Y5080D01*
X35814Y4826D01*
X35306D01*
X35052Y5080D01*
X37591Y6350D02*
X37083D01*
X37337D01*
Y5080D01*
X37083Y4826D01*
X36829D01*
X36575Y5080D01*
X32005Y7112D02*
Y8636D01*
X32767D01*
X33021Y8382D01*
Y7874D01*
X32767Y7620D01*
X32005D01*
X32513D02*
X33021Y7112D01*
X34290D02*
Y8636D01*
X33528Y7874D01*
X34544D01*
X36068Y7112D02*
X35052D01*
X36068Y8128D01*
Y8382D01*
X35814Y8636D01*
X35306D01*
X35052Y8382D01*
X37591Y8636D02*
X37083D01*
X37337D01*
Y7366D01*
X37083Y7112D01*
X36829D01*
X36575Y7366D01*
X33783Y2413D02*
Y3937D01*
X34544D01*
X34798Y3683D01*
Y3175D01*
X34544Y2921D01*
X33783D01*
X34290D02*
X34798Y2413D01*
X36068D02*
Y3937D01*
X35306Y3175D01*
X36322D01*
X36830Y2413D02*
X37337D01*
X37084D01*
Y3937D01*
X36830Y3683D01*
X4013Y19025D02*
Y20548D01*
X4775D01*
X5029Y20294D01*
Y19786D01*
X4775Y19532D01*
X4013D01*
X4521D02*
X5029Y19025D01*
X6552D02*
X5537D01*
X6552Y20040D01*
Y20294D01*
X6298Y20548D01*
X5791D01*
X5537Y20294D01*
X7060Y19279D02*
X7314Y19025D01*
X7822D01*
X8076Y19279D01*
Y20294D01*
X7822Y20548D01*
X7314D01*
X7060Y20294D01*
Y20040D01*
X7314Y19786D01*
X8076D01*
X2616Y25883D02*
Y27406D01*
X3378D01*
X3632Y27152D01*
Y26644D01*
X3378Y26390D01*
X2616D01*
X3124D02*
X3632Y25883D01*
X5155D02*
X4140D01*
X5155Y26898D01*
Y27152D01*
X4901Y27406D01*
X4394D01*
X4140Y27152D01*
X5663D02*
X5917Y27406D01*
X6425D01*
X6679Y27152D01*
Y26898D01*
X6425Y26644D01*
X6679Y26390D01*
Y26137D01*
X6425Y25883D01*
X5917D01*
X5663Y26137D01*
Y26390D01*
X5917Y26644D01*
X5663Y26898D01*
Y27152D01*
X5917Y26644D02*
X6425D01*
X9296Y23647D02*
Y25171D01*
X10058D01*
X10312Y24917D01*
Y24409D01*
X10058Y24155D01*
X9296D01*
X9804D02*
X10312Y23647D01*
X11836D02*
X10820D01*
X11836Y24663D01*
Y24917D01*
X11582Y25171D01*
X11074D01*
X10820Y24917D01*
X12343Y25171D02*
X13359D01*
Y24917D01*
X12343Y23901D01*
Y23647D01*
X4648Y25883D02*
Y27406D01*
X5410D01*
X5664Y27152D01*
Y26644D01*
X5410Y26390D01*
X4648D01*
X5156D02*
X5664Y25883D01*
X7187D02*
X6172D01*
X7187Y26898D01*
Y27152D01*
X6933Y27406D01*
X6426D01*
X6172Y27152D01*
X8711Y27406D02*
X8203Y27152D01*
X7695Y26644D01*
Y26137D01*
X7949Y25883D01*
X8457D01*
X8711Y26137D01*
Y26390D01*
X8457Y26644D01*
X7695D01*
X14681Y25756D02*
Y27279D01*
X15443D01*
X15697Y27025D01*
Y26517D01*
X15443Y26263D01*
X14681D01*
X15189D02*
X15697Y25756D01*
X17220D02*
X16205D01*
X17220Y26771D01*
Y27025D01*
X16966Y27279D01*
X16459D01*
X16205Y27025D01*
X18744Y27279D02*
X17728D01*
Y26517D01*
X18236Y26771D01*
X18490D01*
X18744Y26517D01*
Y26010D01*
X18490Y25756D01*
X17982D01*
X17728Y26010D01*
X4648Y30201D02*
Y31724D01*
X5410D01*
X5664Y31470D01*
Y30962D01*
X5410Y30708D01*
X4648D01*
X5156D02*
X5664Y30201D01*
X7187D02*
X6172D01*
X7187Y31216D01*
Y31470D01*
X6933Y31724D01*
X6426D01*
X6172Y31470D01*
X8457Y30201D02*
Y31724D01*
X7695Y30962D01*
X8711D01*
X9220Y25883D02*
Y27406D01*
X9982D01*
X10236Y27152D01*
Y26644D01*
X9982Y26390D01*
X9220D01*
X9728D02*
X10236Y25883D01*
X11759D02*
X10744D01*
X11759Y26898D01*
Y27152D01*
X11505Y27406D01*
X10998D01*
X10744Y27152D01*
X12267D02*
X12521Y27406D01*
X13029D01*
X13283Y27152D01*
Y26898D01*
X13029Y26644D01*
X12775D01*
X13029D01*
X13283Y26390D01*
Y26137D01*
X13029Y25883D01*
X12521D01*
X12267Y26137D01*
X14681Y28880D02*
Y30403D01*
X15443D01*
X15697Y30149D01*
Y29642D01*
X15443Y29388D01*
X14681D01*
X15189D02*
X15697Y28880D01*
X17220D02*
X16205D01*
X17220Y29895D01*
Y30149D01*
X16966Y30403D01*
X16459D01*
X16205Y30149D01*
X18744Y28880D02*
X17728D01*
X18744Y29895D01*
Y30149D01*
X18490Y30403D01*
X17982D01*
X17728Y30149D01*
X6020Y34138D02*
Y35661D01*
X6782D01*
X7035Y35407D01*
Y34899D01*
X6782Y34645D01*
X6020D01*
X6528D02*
X7035Y34138D01*
X8559D02*
X7543D01*
X8559Y35153D01*
Y35407D01*
X8305Y35661D01*
X7797D01*
X7543Y35407D01*
X9067Y34138D02*
X9575D01*
X9321D01*
Y35661D01*
X9067Y35407D01*
X12776Y34138D02*
Y35661D01*
X13538D01*
X13792Y35407D01*
Y34899D01*
X13538Y34645D01*
X12776D01*
X13284D02*
X13792Y34138D01*
X15315D02*
X14300D01*
X15315Y35153D01*
Y35407D01*
X15061Y35661D01*
X14554D01*
X14300Y35407D01*
X15823D02*
X16077Y35661D01*
X16585D01*
X16839Y35407D01*
Y34392D01*
X16585Y34138D01*
X16077D01*
X15823Y34392D01*
Y35407D01*
X29592Y-25146D02*
Y-23622D01*
X30353D01*
X30607Y-23876D01*
Y-24384D01*
X30353Y-24638D01*
X29592D01*
X30099D02*
X30607Y-25146D01*
X31115D02*
X31623D01*
X31369D01*
Y-23622D01*
X31115Y-23876D01*
X33400Y-23622D02*
X32385D01*
Y-24384D01*
X32893Y-24130D01*
X33146D01*
X33400Y-24384D01*
Y-24892D01*
X33146Y-25146D01*
X32639D01*
X32385Y-24892D01*
X31497Y25146D02*
Y26670D01*
X32258D01*
X32512Y26416D01*
Y25908D01*
X32258Y25654D01*
X31497D01*
X32004D02*
X32512Y25146D01*
X33020D02*
X33528D01*
X33274D01*
Y26670D01*
X33020Y26416D01*
X35051Y25146D02*
Y26670D01*
X34290Y25908D01*
X35305D01*
X28575Y21083D02*
X27051D01*
Y21844D01*
X27305Y22098D01*
X27813D01*
X28067Y21844D01*
Y21083D01*
Y21590D02*
X28575Y22098D01*
Y22606D02*
Y23114D01*
Y22860D01*
X27051D01*
X27305Y22606D01*
Y23876D02*
X27051Y24130D01*
Y24637D01*
X27305Y24891D01*
X27559D01*
X27813Y24637D01*
Y24384D01*
Y24637D01*
X28067Y24891D01*
X28321D01*
X28575Y24637D01*
Y24130D01*
X28321Y23876D01*
X46126Y29235D02*
Y30759D01*
X46888D01*
X47142Y30505D01*
Y29997D01*
X46888Y29743D01*
X46126D01*
X46634D02*
X47142Y29235D01*
X48666Y30759D02*
X48158Y30505D01*
X47650Y29997D01*
Y29489D01*
X47904Y29235D01*
X48412D01*
X48666Y29489D01*
Y29743D01*
X48412Y29997D01*
X47650D01*
X54839Y22962D02*
Y24485D01*
X55600D01*
X55854Y24231D01*
Y23723D01*
X55600Y23469D01*
X54839D01*
X55346D02*
X55854Y22962D01*
X57378Y24485D02*
X56362D01*
Y23723D01*
X56870Y23977D01*
X57124D01*
X57378Y23723D01*
Y23216D01*
X57124Y22962D01*
X56616D01*
X56362Y23216D01*
X51968Y18059D02*
Y19583D01*
X52730D01*
X52984Y19329D01*
Y18821D01*
X52730Y18567D01*
X51968D01*
X52476D02*
X52984Y18059D01*
X54254D02*
Y19583D01*
X53492Y18821D01*
X54508D01*
X49428Y18059D02*
Y19583D01*
X50190D01*
X50444Y19329D01*
Y18821D01*
X50190Y18567D01*
X49428D01*
X49936D02*
X50444Y18059D01*
X50952Y19329D02*
X51206Y19583D01*
X51714D01*
X51968Y19329D01*
Y19075D01*
X51714Y18821D01*
X51460D01*
X51714D01*
X51968Y18567D01*
Y18313D01*
X51714Y18059D01*
X51206D01*
X50952Y18313D01*
X42951Y22250D02*
Y23774D01*
X43713D01*
X43967Y23520D01*
Y23012D01*
X43713Y22758D01*
X42951D01*
X43459D02*
X43967Y22250D01*
X45491D02*
X44475D01*
X45491Y23266D01*
Y23520D01*
X45237Y23774D01*
X44729D01*
X44475Y23520D01*
X46076Y31267D02*
Y32791D01*
X46837D01*
X47091Y32537D01*
Y32029D01*
X46837Y31775D01*
X46076D01*
X46583D02*
X47091Y31267D01*
X47599D02*
X48107D01*
X47853D01*
Y32791D01*
X47599Y32537D01*
X53797Y4039D02*
Y5562D01*
X54559D01*
X54813Y5308D01*
Y4800D01*
X54559Y4546D01*
X53797D01*
X54305D02*
X54813Y4039D01*
X55321Y5308D02*
X55575Y5562D01*
X56082D01*
X56336Y5308D01*
Y4293D01*
X56082Y4039D01*
X55575D01*
X55321Y4293D01*
Y5308D01*
X56844Y4039D02*
X57352D01*
X57098D01*
Y5562D01*
X56844Y5308D01*
X44348Y5004D02*
Y6019D01*
X44094Y6273D01*
X43586D01*
X43332Y6019D01*
Y5004D01*
X43586Y4750D01*
X44094D01*
X43840Y5258D02*
X44348Y4750D01*
X44094D02*
X44348Y5004D01*
X44856Y4750D02*
X45364D01*
X45110D01*
Y6273D01*
X44856Y6019D01*
X52781Y31496D02*
Y33020D01*
X53543D01*
X53797Y32766D01*
Y32258D01*
X53543Y32004D01*
X52781D01*
X55320Y33020D02*
X54305D01*
Y32258D01*
X54813Y32512D01*
X55066D01*
X55320Y32258D01*
Y31750D01*
X55066Y31496D01*
X54559D01*
X54305Y31750D01*
X9804Y39522D02*
X9296D01*
X9550D01*
Y38252D01*
X9296Y37998D01*
X9042D01*
X8788Y38252D01*
X11074Y37998D02*
Y39522D01*
X10312Y38760D01*
X11328D01*
X51689Y11557D02*
X51181D01*
X51435D01*
Y10287D01*
X51181Y10033D01*
X50927D01*
X50673Y10287D01*
X52197Y11303D02*
X52451Y11557D01*
X52959D01*
X53213Y11303D01*
Y11049D01*
X52959Y10795D01*
X52705D01*
X52959D01*
X53213Y10541D01*
Y10287D01*
X52959Y10033D01*
X52451D01*
X52197Y10287D01*
X32461Y21463D02*
X31953D01*
X32207D01*
Y20193D01*
X31953Y19939D01*
X31699D01*
X31445Y20193D01*
X33984Y19939D02*
X32969D01*
X33984Y20955D01*
Y21209D01*
X33730Y21463D01*
X33223D01*
X32969Y21209D01*
X16840Y21463D02*
X16332D01*
X16586D01*
Y20193D01*
X16332Y19939D01*
X16078D01*
X15824Y20193D01*
X17348Y19939D02*
X17856D01*
X17602D01*
Y21463D01*
X17348Y21209D01*
X1930Y20015D02*
X914D01*
Y19253D01*
X1422D01*
X914D01*
Y18491D01*
X2438Y20015D02*
Y18491D01*
X3454D01*
X3961D02*
X4469D01*
X4215D01*
Y20015D01*
X3961Y19761D01*
X29058Y29413D02*
Y27889D01*
X29819D01*
X30073Y28143D01*
Y29159D01*
X29819Y29413D01*
X29058D01*
X30581Y27889D02*
X31089D01*
X30835D01*
Y29413D01*
X30581Y29159D01*
X31851Y27889D02*
X32359D01*
X32105D01*
Y29413D01*
X31851Y29159D01*
X44323Y11557D02*
Y10033D01*
X45085D01*
X45339Y10287D01*
Y11303D01*
X45085Y11557D01*
X44323D01*
X45847Y10033D02*
X46355D01*
X46101D01*
Y11557D01*
X45847Y11303D01*
X34594Y42875D02*
X34341Y43129D01*
X33833D01*
X33579Y42875D01*
Y41859D01*
X33833Y41605D01*
X34341D01*
X34594Y41859D01*
X36118Y43129D02*
X35102D01*
Y42367D01*
X35610Y42621D01*
X35864D01*
X36118Y42367D01*
Y41859D01*
X35864Y41605D01*
X35356D01*
X35102Y41859D01*
X36626Y41605D02*
X37134D01*
X36880D01*
Y43129D01*
X36626Y42875D01*
X19685Y37719D02*
X19431Y37973D01*
X18924D01*
X18670Y37719D01*
Y36703D01*
X18924Y36449D01*
X19431D01*
X19685Y36703D01*
X21209Y37973D02*
X20193D01*
Y37211D01*
X20701Y37465D01*
X20955D01*
X21209Y37211D01*
Y36703D01*
X20955Y36449D01*
X20447D01*
X20193Y36703D01*
X21717Y37719D02*
X21971Y37973D01*
X22478D01*
X22732Y37719D01*
Y36703D01*
X22478Y36449D01*
X21971D01*
X21717Y36703D01*
Y37719D01*
X47879Y11303D02*
X47625Y11557D01*
X47118D01*
X46864Y11303D01*
Y10287D01*
X47118Y10033D01*
X47625D01*
X47879Y10287D01*
X49149Y10033D02*
Y11557D01*
X48387Y10795D01*
X49403D01*
X49911Y10033D02*
X50418D01*
X50165D01*
Y11557D01*
X49911Y11303D01*
X5003Y17678D02*
X4750Y17932D01*
X4242D01*
X3988Y17678D01*
Y16662D01*
X4242Y16408D01*
X4750D01*
X5003Y16662D01*
X6527Y16408D02*
X5511D01*
X6527Y17424D01*
Y17678D01*
X6273Y17932D01*
X5765D01*
X5511Y17678D01*
X7035D02*
X7289Y17932D01*
X7797D01*
X8050Y17678D01*
Y17424D01*
X7797Y17170D01*
X7543D01*
X7797D01*
X8050Y16916D01*
Y16662D01*
X7797Y16408D01*
X7289D01*
X7035Y16662D01*
X9677Y36703D02*
X9423Y36957D01*
X8915D01*
X8661Y36703D01*
Y35687D01*
X8915Y35433D01*
X9423D01*
X9677Y35687D01*
X11201Y35433D02*
X10185D01*
X11201Y36449D01*
Y36703D01*
X10947Y36957D01*
X10439D01*
X10185Y36703D01*
X11708Y35433D02*
X12216D01*
X11962D01*
Y36957D01*
X11708Y36703D01*
X11455Y36677D02*
X11201Y36931D01*
X10693D01*
X10439Y36677D01*
Y35662D01*
X10693Y35408D01*
X11201D01*
X11455Y35662D01*
X12979Y35408D02*
X11963D01*
X12979Y36423D01*
Y36677D01*
X12725Y36931D01*
X12217D01*
X11963Y36677D01*
X13486D02*
X13740Y36931D01*
X14248D01*
X14502Y36677D01*
Y35662D01*
X14248Y35408D01*
X13740D01*
X13486Y35662D01*
Y36677D01*
X25857Y29464D02*
X25603Y29718D01*
X25095D01*
X24841Y29464D01*
Y28448D01*
X25095Y28194D01*
X25603D01*
X25857Y28448D01*
X26365Y28194D02*
X26873D01*
X26619D01*
Y29718D01*
X26365Y29464D01*
X27634D02*
X27888Y29718D01*
X28396D01*
X28650Y29464D01*
Y29210D01*
X28396Y28956D01*
X28142D01*
X28396D01*
X28650Y28702D01*
Y28448D01*
X28396Y28194D01*
X27888D01*
X27634Y28448D01*
X20701Y17780D02*
X20447Y18034D01*
X19939D01*
X19686Y17780D01*
Y16764D01*
X19939Y16510D01*
X20447D01*
X20701Y16764D01*
X21209Y16510D02*
X21717D01*
X21463D01*
Y18034D01*
X21209Y17780D01*
X22479Y16510D02*
X22986D01*
X22733D01*
Y18034D01*
X22479Y17780D01*
X36753Y24841D02*
X36500Y25095D01*
X35992D01*
X35738Y24841D01*
Y23825D01*
X35992Y23571D01*
X36500D01*
X36753Y23825D01*
X38277Y25095D02*
X37261D01*
Y24333D01*
X37769Y24587D01*
X38023D01*
X38277Y24333D01*
Y23825D01*
X38023Y23571D01*
X37515D01*
X37261Y23825D01*
X39217Y20904D02*
X38963Y21158D01*
X38456D01*
X38202Y20904D01*
Y19888D01*
X38456Y19634D01*
X38963D01*
X39217Y19888D01*
X40487Y19634D02*
Y21158D01*
X39725Y20396D01*
X40741D01*
X49834Y30556D02*
X49581Y30810D01*
X49073D01*
X48819Y30556D01*
Y29540D01*
X49073Y29286D01*
X49581D01*
X49834Y29540D01*
X50342Y30556D02*
X50596Y30810D01*
X51104D01*
X51358Y30556D01*
Y30302D01*
X51104Y30048D01*
X50850D01*
X51104D01*
X51358Y29794D01*
Y29540D01*
X51104Y29286D01*
X50596D01*
X50342Y29540D01*
X47345Y19380D02*
X47091Y19634D01*
X46584D01*
X46330Y19380D01*
Y18364D01*
X46584Y18110D01*
X47091D01*
X47345Y18364D01*
X48869Y18110D02*
X47853D01*
X48869Y19126D01*
Y19380D01*
X48615Y19634D01*
X48107D01*
X47853Y19380D01*
X49758Y32588D02*
X49504Y32842D01*
X48997D01*
X48743Y32588D01*
Y31572D01*
X48997Y31318D01*
X49504D01*
X49758Y31572D01*
X50266Y31318D02*
X50774D01*
X50520D01*
Y32842D01*
X50266Y32588D01*
X49784Y4572D02*
X49530Y4826D01*
X49022D01*
X48768Y4572D01*
Y3556D01*
X49022Y3302D01*
X49530D01*
X49784Y3556D01*
X50292Y4572D02*
X50545Y4826D01*
X51053D01*
X51307Y4572D01*
Y3556D01*
X51053Y3302D01*
X50545D01*
X50292Y3556D01*
Y4572D01*
X51815Y3302D02*
X52323D01*
X52069D01*
Y4826D01*
X51815Y4572D01*
D13*
X48438Y18455D02*
Y23455D01*
X51638Y18455D02*
Y23455D01*
X48438D02*
X51638D01*
X48438Y18455D02*
X51638D01*
X8032Y11362D02*
X9632D01*
X8038Y13017D02*
X9637D01*
X3079Y10981D02*
X4679D01*
X3085Y12636D02*
X4685D01*
X3869Y16223D02*
Y17823D01*
X5524Y16218D02*
Y17818D01*
X9482Y21141D02*
X11082D01*
X9487Y22796D02*
X11087D01*
X4482Y23068D02*
Y24668D01*
X6137Y23062D02*
Y24663D01*
X14515Y22941D02*
Y24541D01*
X16170Y22935D02*
Y24535D01*
X4482Y27386D02*
Y28986D01*
X6137Y27381D02*
Y28980D01*
X14515Y26063D02*
Y27663D01*
X16170Y26058D02*
Y27658D01*
X6221Y33276D02*
X7821D01*
X6215Y31621D02*
X7815D01*
X12974Y33276D02*
X14574D01*
X12969Y31621D02*
X14568D01*
X11870Y17112D02*
Y18712D01*
X13525Y17107D02*
Y18707D01*
X2472Y23081D02*
Y24681D01*
X4127Y23076D02*
Y24676D01*
X9407Y23361D02*
X11007D01*
X9413Y25016D02*
X11012D01*
X10232Y31917D02*
Y34329D01*
X8520Y31917D02*
Y34329D01*
X5555Y12891D02*
Y15303D01*
X3843Y12891D02*
Y15303D01*
X1109Y14615D02*
Y15865D01*
X3209Y14615D02*
Y15865D01*
X8665Y30628D02*
X11865D01*
X8665Y25628D02*
X11865D01*
X8665D02*
Y30628D01*
X11865Y25628D02*
Y30628D01*
X12010Y31875D02*
Y34287D01*
X10298Y31875D02*
Y34287D01*
X6390Y15418D02*
Y18618D01*
X11390Y15418D02*
Y18618D01*
X6390Y15418D02*
X11390D01*
X6390Y18618D02*
X11390D01*
X48832Y30447D02*
X51244D01*
X48832Y28735D02*
X51244D01*
X49614Y15553D02*
X51214D01*
X49619Y17208D02*
X51219D01*
X46419Y17239D02*
X48831D01*
X46419Y15527D02*
X48831D01*
X56329Y20150D02*
Y21750D01*
X54674Y20155D02*
Y21755D01*
X52154Y15553D02*
X53754D01*
X52159Y17208D02*
X53759D01*
X49117Y463D02*
X51975D01*
X49117Y2331D02*
X51975D01*
X46259Y28761D02*
X47859D01*
X46264Y30416D02*
X47864D01*
X43137Y19744D02*
X44737D01*
X43142Y21399D02*
X44742D01*
X38671Y6038D02*
X38921D01*
X38671Y5138D02*
X38921D01*
X38671Y8324D02*
X38921D01*
X38671Y7424D02*
X38921D01*
X38069Y4081D02*
X40925D01*
X38069Y2269D02*
X40925D01*
X44020Y2111D02*
Y2461D01*
X44545Y786D02*
X45420D01*
Y3061D02*
Y3786D01*
Y786D02*
Y1511D01*
X44545Y3786D02*
X45420D01*
X44539Y6110D02*
Y7860D01*
X46139Y6110D02*
Y7860D01*
X47658Y6795D02*
Y9207D01*
X49370Y6795D02*
Y9207D01*
X48917Y28415D02*
X51329D01*
X48917Y26703D02*
X51329D01*
X46312Y26729D02*
X47912D01*
X46317Y28384D02*
X47917D01*
X38363Y18760D02*
X40113D01*
X38368Y17057D02*
X40118D01*
X38228Y21426D02*
Y21626D01*
X40278Y21426D02*
Y21626D01*
X35596Y20618D02*
Y22368D01*
X37299Y20623D02*
Y22373D01*
X22034Y38242D02*
Y39841D01*
X20379Y38247D02*
Y39847D01*
X20353Y33507D02*
Y35919D01*
X22065Y33507D02*
Y35919D01*
X19925Y38112D02*
Y40120D01*
X18175Y38112D02*
Y40120D01*
X19925Y33447D02*
Y35455D01*
X18175Y33447D02*
Y35455D01*
X23850Y22487D02*
Y23487D01*
X26950Y22487D02*
Y23487D01*
X23850Y22487D02*
X26950D01*
X23850Y23487D02*
X26950D01*
X25177Y25355D02*
X28035D01*
X25177Y27223D02*
X28035D01*
X22778Y21685D02*
Y24543D01*
X20910Y21685D02*
Y24543D01*
X30414Y21602D02*
Y23102D01*
X28564Y21602D02*
Y23102D01*
X33081Y25158D02*
Y26658D01*
X31231Y25158D02*
Y26658D01*
X33081Y21602D02*
Y23102D01*
X31231Y21602D02*
Y23102D01*
X23971Y18370D02*
X26829D01*
X23971Y20238D02*
X26829D01*
X20256Y10767D02*
X23256D01*
X20256Y4717D02*
Y10767D01*
X27256D02*
X29656D01*
Y4717D02*
Y10767D01*
Y367D02*
Y617D01*
X20256Y367D02*
Y617D01*
Y367D02*
X29656D01*
X29014Y25858D02*
Y25958D01*
X29914Y25858D02*
Y25958D01*
X24001Y18057D02*
X26859D01*
X24001Y16189D02*
X26859D01*
X50773Y6608D02*
Y9648D01*
X52878D02*
X53113D01*
X50773D02*
X51008D01*
X53113Y6608D02*
Y9648D01*
X52878Y6608D02*
X53113D01*
X50773D02*
X51008D01*
X55308Y1232D02*
Y2832D01*
X53653Y1237D02*
Y2837D01*
X52651Y26797D02*
X52811D01*
X52651D02*
Y30607D01*
X53048D01*
X54394D02*
X54791D01*
Y26797D02*
Y30607D01*
X54631Y26797D02*
X54791D01*
X8745Y34705D02*
X11785D01*
X8745Y36810D02*
Y37045D01*
Y34705D02*
Y34940D01*
Y37045D02*
X11785D01*
Y36810D02*
Y37045D01*
Y34705D02*
Y34940D01*
X31437Y382D02*
X33847D01*
Y18922D01*
X31437Y382D02*
Y18922D01*
X33847D01*
X15813Y18922D02*
X18223D01*
X15813Y382D02*
Y18922D01*
X18223Y382D02*
Y18922D01*
X15813Y382D02*
X18223D01*
X33677Y40734D02*
X36089D01*
X33677Y39022D02*
X36089D01*
X57087Y936D02*
X58737D01*
X56362Y2061D02*
Y2511D01*
X57087Y3636D02*
X58737D01*
X59462Y2061D02*
Y2511D01*
X30442Y40703D02*
X32042D01*
X30437Y39048D02*
X32037D01*
X27013Y40703D02*
X28613D01*
X27008Y39048D02*
X28608D01*
X26467Y33568D02*
X29667D01*
X26467Y38568D02*
X29667D01*
Y33568D02*
Y38568D01*
X26467Y33568D02*
Y38568D01*
X28008Y41867D02*
Y43467D01*
X26353Y41872D02*
Y43472D01*
M02*
