G04*
G04 #@! TF.GenerationSoftware,Altium Limited,Altium Designer,22.2.1 (43)*
G04*
G04 Layer_Color=8421504*
%FSLAX43Y43*%
%MOMM*%
G71*
G04*
G04 #@! TF.SameCoordinates,2A909F52-9C27-4A3D-9E3E-93034AC3C428*
G04*
G04*
G04 #@! TF.FilePolarity,Positive*
G04*
G01*
G75*
G04:AMPARAMS|DCode=14|XSize=0.65mm|YSize=1.65mm|CornerRadius=0.049mm|HoleSize=0mm|Usage=FLASHONLY|Rotation=90.000|XOffset=0mm|YOffset=0mm|HoleType=Round|Shape=RoundedRectangle|*
%AMROUNDEDRECTD14*
21,1,0.650,1.553,0,0,90.0*
21,1,0.553,1.650,0,0,90.0*
1,1,0.098,0.776,0.276*
1,1,0.098,0.776,-0.276*
1,1,0.098,-0.776,-0.276*
1,1,0.098,-0.776,0.276*
%
%ADD14ROUNDEDRECTD14*%
%ADD15R,0.725X0.900*%
%ADD16R,0.900X0.725*%
%ADD17R,0.912X1.058*%
%ADD18R,2.600X1.000*%
G04:AMPARAMS|DCode=19|XSize=0.65mm|YSize=1.65mm|CornerRadius=0.049mm|HoleSize=0mm|Usage=FLASHONLY|Rotation=0.000|XOffset=0mm|YOffset=0mm|HoleType=Round|Shape=RoundedRectangle|*
%AMROUNDEDRECTD19*
21,1,0.650,1.553,0,0,0.0*
21,1,0.553,1.650,0,0,0.0*
1,1,0.098,0.276,-0.776*
1,1,0.098,-0.276,-0.776*
1,1,0.098,-0.276,0.776*
1,1,0.098,0.276,0.776*
%
%ADD19ROUNDEDRECTD19*%
%ADD20R,1.058X0.912*%
%ADD21R,1.207X1.068*%
%ADD22R,0.500X0.800*%
%ADD23R,1.353X1.012*%
%ADD24R,0.900X0.800*%
%ADD25R,2.000X1.250*%
%ADD26R,0.750X0.900*%
%ADD27R,0.800X0.700*%
%ADD28C,0.630*%
%ADD29R,0.900X0.750*%
%ADD30R,0.858X0.806*%
G04:AMPARAMS|DCode=31|XSize=0.6mm|YSize=1mm|CornerRadius=0.051mm|HoleSize=0mm|Usage=FLASHONLY|Rotation=180.000|XOffset=0mm|YOffset=0mm|HoleType=Round|Shape=RoundedRectangle|*
%AMROUNDEDRECTD31*
21,1,0.600,0.898,0,0,180.0*
21,1,0.498,1.000,0,0,180.0*
1,1,0.102,-0.249,0.449*
1,1,0.102,0.249,0.449*
1,1,0.102,0.249,-0.449*
1,1,0.102,-0.249,-0.449*
%
%ADD31ROUNDEDRECTD31*%
%ADD32R,1.068X1.207*%
%ADD33R,0.962X0.935*%
%ADD34R,1.200X3.500*%
%ADD35R,2.400X3.300*%
%ADD36R,0.800X0.600*%
%ADD37R,0.550X0.600*%
G36*
X39028Y22001D02*
X38228D01*
Y22571D01*
X38358Y22701D01*
X39028D01*
Y22001D01*
D02*
G37*
D14*
X47213Y22860D02*
D03*
Y21590D02*
D03*
Y20320D02*
D03*
Y19050D02*
D03*
X52863Y22860D02*
D03*
Y21590D02*
D03*
Y20320D02*
D03*
Y19050D02*
D03*
X7440Y30033D02*
D03*
Y28763D02*
D03*
Y27493D02*
D03*
Y26223D02*
D03*
X13090Y30033D02*
D03*
Y28763D02*
D03*
Y27493D02*
D03*
Y26223D02*
D03*
X30892Y34163D02*
D03*
Y35433D02*
D03*
Y36703D02*
D03*
Y37973D02*
D03*
X25242Y34163D02*
D03*
Y35433D02*
D03*
Y36703D02*
D03*
Y37973D02*
D03*
D15*
X9525Y12192D02*
D03*
X8150D02*
D03*
X4572Y11811D02*
D03*
X3197D02*
D03*
X10974Y21971D02*
D03*
X9599D02*
D03*
X6328Y32446D02*
D03*
X7703D02*
D03*
X13081D02*
D03*
X14456D02*
D03*
X10900Y24191D02*
D03*
X9525D02*
D03*
X51106Y16383D02*
D03*
X49731D02*
D03*
X53646D02*
D03*
X52271D02*
D03*
X47752Y29591D02*
D03*
X46377D02*
D03*
X44630Y20574D02*
D03*
X43255D02*
D03*
X47805Y27559D02*
D03*
X46430D02*
D03*
X30555Y39878D02*
D03*
X31930D02*
D03*
X27125D02*
D03*
X28500D02*
D03*
D16*
X4699Y16330D02*
D03*
Y17705D02*
D03*
X5312Y23175D02*
D03*
Y24550D02*
D03*
X15345Y23048D02*
D03*
Y24423D02*
D03*
X5312Y27493D02*
D03*
Y28868D02*
D03*
X15345Y26170D02*
D03*
Y27545D02*
D03*
X12700Y17219D02*
D03*
Y18594D02*
D03*
X3302Y23188D02*
D03*
Y24563D02*
D03*
X55499Y21642D02*
D03*
Y20267D02*
D03*
X21209Y39729D02*
D03*
Y38354D02*
D03*
X54483Y2720D02*
D03*
Y1344D02*
D03*
X27178Y43360D02*
D03*
Y41985D02*
D03*
D17*
X9376Y32446D02*
D03*
Y33800D02*
D03*
X4699Y13420D02*
D03*
Y14774D02*
D03*
X11154Y32404D02*
D03*
Y33758D02*
D03*
X48514Y8678D02*
D03*
Y7324D02*
D03*
X21209Y35390D02*
D03*
Y34036D02*
D03*
D18*
X2159Y13740D02*
D03*
Y16740D02*
D03*
D19*
X6985Y14193D02*
D03*
X8255D02*
D03*
X9525D02*
D03*
X10795D02*
D03*
X6985Y19843D02*
D03*
X8255D02*
D03*
X9525D02*
D03*
X10795D02*
D03*
D20*
X50715Y29591D02*
D03*
X49361D02*
D03*
X48302Y16383D02*
D03*
X46948D02*
D03*
X50800Y27559D02*
D03*
X49446D02*
D03*
X35560Y39878D02*
D03*
X34206D02*
D03*
D21*
X49720Y1397D02*
D03*
X51372D02*
D03*
X25780Y26289D02*
D03*
X27432D02*
D03*
X24574Y19304D02*
D03*
X26226D02*
D03*
X26256Y17123D02*
D03*
X24604D02*
D03*
D22*
X38046Y5588D02*
D03*
X39546D02*
D03*
X38046Y7874D02*
D03*
X39546D02*
D03*
D23*
X40249Y3175D02*
D03*
X38745D02*
D03*
D24*
X45720Y2286D02*
D03*
X43720Y1336D02*
D03*
Y3236D02*
D03*
D25*
X45339Y5110D02*
D03*
Y8860D02*
D03*
D26*
X38643Y17907D02*
D03*
X39843D02*
D03*
D27*
X39878Y22351D02*
D03*
Y20701D02*
D03*
X38628D02*
D03*
D28*
Y22351D02*
D03*
D29*
X36449Y20898D02*
D03*
Y22098D02*
D03*
D30*
X19050Y38515D02*
D03*
Y39717D02*
D03*
Y33850D02*
D03*
Y35052D02*
D03*
D31*
X24450Y21612D02*
D03*
X25400D02*
D03*
X26350D02*
D03*
Y24362D02*
D03*
X24450D02*
D03*
D32*
X21844Y22288D02*
D03*
Y23940D02*
D03*
D33*
X29464Y23067D02*
D03*
Y21637D02*
D03*
X32131Y26623D02*
D03*
Y25193D02*
D03*
Y23067D02*
D03*
Y21637D02*
D03*
D34*
X24256Y9617D02*
D03*
X26256D02*
D03*
D35*
X28956Y2667D02*
D03*
X20956D02*
D03*
D36*
X29464Y25183D02*
D03*
Y26633D02*
D03*
D37*
X59387Y1386D02*
D03*
X56437D02*
D03*
X59387Y3186D02*
D03*
X56437D02*
D03*
M02*
