M48
;Layer_Color=9474304
;FILE_FORMAT=4:3
METRIC,LZ
;TYPE=PLATED
T1F00S00C0.700
T2F00S00C0.711
T3F00S00C1.020
%
T01
X0051943Y0007493
Y0008763
X0053721Y0027432
Y0028702
Y0029972
X00109Y0035875
X000963
T02
X0018415Y0019685
X0029718Y0019558
X0034798Y0026035
X0034544Y0030353
X0040259Y0024638
X0042913Y0018063
X0053467Y0024384
X003048Y0043434
X0017272Y0040767
X0017526Y0030607
X0014859
X0007493Y0024511
X0004318Y002032
T03
X0017018Y0002032
Y0004572
Y0007112
Y0009652
Y0012192
X0032642Y0012192
Y0009652
Y0007112
Y0004572
Y0002032
Y0014732
Y0017272
X0017018Y0017272
Y0014732
M30
