G04*
G04 #@! TF.GenerationSoftware,Altium Limited,Altium Designer,22.2.1 (43)*
G04*
G04 Layer_Color=128*
%FSLAX43Y43*%
%MOMM*%
G71*
G04*
G04 #@! TF.SameCoordinates,2A909F52-9C27-4A3D-9E3E-93034AC3C428*
G04*
G04*
G04 #@! TF.FilePolarity,Positive*
G04*
G01*
G75*
%ADD61C,0.051*%
D61*
X51593Y7493D02*
X52293D01*
X51943Y7143D02*
Y7843D01*
X51593Y8763D02*
X52293D01*
X51943Y8413D02*
Y9113D01*
X53371Y27432D02*
X54071D01*
X53721Y27082D02*
Y27782D01*
X53371Y28702D02*
X54071D01*
X53721Y28352D02*
Y29052D01*
X53371Y29972D02*
X54071D01*
X53721Y29622D02*
Y30322D01*
X10550Y35875D02*
X11250D01*
X10900Y35525D02*
Y36225D01*
X9280Y35875D02*
X9980D01*
X9630Y35525D02*
Y36225D01*
X32132Y17272D02*
X33152D01*
X32642Y16762D02*
Y17782D01*
X32132Y14732D02*
X33152D01*
X32642Y14222D02*
Y15242D01*
X32132Y12192D02*
X33152D01*
X32642Y11682D02*
Y12702D01*
X32132Y9652D02*
X33152D01*
X32642Y9142D02*
Y10162D01*
X32132Y7112D02*
X33152D01*
X32642Y6602D02*
Y7622D01*
X32132Y4572D02*
X33152D01*
X32642Y4062D02*
Y5082D01*
X32132Y2032D02*
X33152D01*
X32642Y1522D02*
Y2542D01*
X16508Y2032D02*
X17528D01*
X17018Y1522D02*
Y2542D01*
X16508Y4572D02*
X17528D01*
X17018Y4062D02*
Y5082D01*
X16508Y7112D02*
X17528D01*
X17018Y6602D02*
Y7622D01*
X16508Y9652D02*
X17528D01*
X17018Y9142D02*
Y10162D01*
X16508Y12192D02*
X17528D01*
X17018Y11682D02*
Y12702D01*
X16508Y14732D02*
X17528D01*
X17018Y14222D02*
Y15242D01*
X16508Y17272D02*
X17528D01*
X17018Y16762D02*
Y17782D01*
X17170Y30607D02*
X17882D01*
X17526Y30251D02*
Y30963D01*
X7137Y24511D02*
X7849D01*
X7493Y24155D02*
Y24867D01*
X18059Y19685D02*
X18771D01*
X18415Y19329D02*
Y20041D01*
X3962Y20320D02*
X4674D01*
X4318Y19964D02*
Y20676D01*
X14503Y30607D02*
X15215D01*
X14859Y30251D02*
Y30963D01*
X53111Y24384D02*
X53823D01*
X53467Y24028D02*
Y24740D01*
X42557Y18063D02*
X43268D01*
X42913Y17707D02*
Y18419D01*
X39903Y24638D02*
X40615D01*
X40259Y24282D02*
Y24994D01*
X34442Y26035D02*
X35154D01*
X34798Y25679D02*
Y26391D01*
X16916Y40767D02*
X17628D01*
X17272Y40411D02*
Y41123D01*
X30124Y43434D02*
X30836D01*
X30480Y43078D02*
Y43790D01*
X34188Y30353D02*
X34900D01*
X34544Y29997D02*
Y30709D01*
X29362Y19558D02*
X30074D01*
X29718Y19202D02*
Y19914D01*
M02*
